<?xml version="1.0" encoding="utf-8"?>
<!-- Generator: Adobe Illustrator 24.1.1, SVG Export Plug-In . SVG Version: 6.00 Build 0)  -->
<svg version="1.1" id="Capa_1" xmlns="http://www.w3.org/2000/svg" xmlns:xlink="http://www.w3.org/1999/xlink" x="0px" y="0px"
	 viewBox="0 0 230 196.3" style="enable-background:new 0 0 230 196.3;" xml:space="preserve">
<style type="text/css">
	.st0{fill:none;stroke:#7C2424;stroke-width:20;stroke-miterlimit:10;}
	.st1{fill:#F3F3F3;}
	.st2{fill:#EAEAEA;}
	.st3{fill:none;stroke:#BA3131;stroke-width:18;stroke-miterlimit:10;}
	.st4{enable-background:new    ;}
	.st5{fill:#303030;}
</style>
<path id="sombra" class="st0" d="M102.6,14.5L11.2,172.7c-2.5,4.3-1,9.9,3.3,12.4c1.4,0.8,2.9,1.2,4.5,1.2h182.7c5,0,9.1-4,9.1-9
	c0-1.6-0.4-3.2-1.2-4.5L118.2,14.5c-2.4-4.3-7.9-5.9-12.3-3.4C104.6,11.9,103.4,13.1,102.6,14.5z"/>
<path id="white" class="st1" d="M113.4,13.9l-93,161c-2.1,3.7-0.9,8.3,2.8,10.5c1.2,0.7,2.5,1,3.9,1h186c4.2,0,7.7-3.4,7.7-7.7
	c0-1.3-0.4-2.7-1-3.8l-93-161c-2.1-3.7-6.8-4.9-10.5-2.8C115,11.8,114,12.8,113.4,13.9z"/>
<rect x="-19.5" y="96.7" transform="matrix(0.5 -0.866 0.866 0.5 -50.3873 114.8766)" class="st2" width="187.6" height="8.8"/>
<path id="borde" class="st3" d="M113.7,14.1l-93,161c-2.1,3.7-0.9,8.4,2.8,10.5c1.2,0.7,2.5,1,3.8,1h186c4.2,0,7.7-3.4,7.7-7.7
	c0-1.3-0.4-2.7-1-3.8l-93-161c-2.1-3.7-6.8-4.9-10.5-2.8C115.4,12,114.4,13,113.7,14.1z"/>
<g class="st4">
	<path class="st5" d="M79.7,148.1l3,20h-5.3l-0.3-3.6h-1.9l-0.3,3.6h-5.4l2.7-20H79.7z M77,161c-0.3-2.3-0.5-5.1-0.8-8.4
		c-0.5,3.8-0.9,6.6-1,8.4H77z"/>
	<path class="st5" d="M94.5,157.9h-4.7V156c0-0.7-0.1-1.1-0.2-1.3s-0.3-0.4-0.6-0.4c-0.3,0-0.5,0.1-0.6,0.3s-0.1,0.7-0.1,1.4v7.7
		c0,0.6,0.1,1,0.2,1.3s0.4,0.4,0.7,0.4c0.3,0,0.6-0.2,0.7-0.5s0.2-0.9,0.2-1.7v-2h4.5c0,1.3-0.1,2.3-0.1,3c-0.1,0.7-0.4,1.3-0.8,2
		s-1.1,1.2-1.8,1.6c-0.8,0.3-1.7,0.5-2.8,0.5c-1.4,0-2.5-0.2-3.4-0.7s-1.4-1.2-1.8-2s-0.5-2.1-0.5-3.7v-4.7c0-1.4,0.1-2.4,0.4-3.2
		c0.3-0.7,0.9-1.3,1.8-1.9c0.9-0.6,2-0.8,3.3-0.8s2.4,0.3,3.3,0.8c0.9,0.6,1.5,1.2,1.8,2.1C94.3,155.2,94.5,156.4,94.5,157.9z"/>
	<path class="st5" d="M107,157.9h-4.7V156c0-0.7-0.1-1.1-0.2-1.3s-0.3-0.4-0.6-0.4c-0.3,0-0.5,0.1-0.6,0.3s-0.1,0.7-0.1,1.4v7.7
		c0,0.6,0.1,1,0.2,1.3s0.4,0.4,0.7,0.4c0.3,0,0.6-0.2,0.7-0.5s0.2-0.9,0.2-1.7v-2h4.5c0,1.3-0.1,2.3-0.1,3c-0.1,0.7-0.4,1.3-0.8,2
		s-1.1,1.2-1.8,1.6c-0.8,0.3-1.7,0.5-2.8,0.5c-1.4,0-2.5-0.2-3.4-0.7s-1.4-1.2-1.8-2s-0.5-2.1-0.5-3.7v-4.7c0-1.4,0.1-2.4,0.4-3.2
		c0.3-0.7,0.9-1.3,1.8-1.9c0.9-0.6,2-0.8,3.3-0.8s2.4,0.3,3.3,0.8c0.9,0.6,1.5,1.2,1.8,2.1C106.8,155.2,107,156.4,107,157.9z"/>
	<path class="st5" d="M113.6,148.1v2.6h-5.1v-2.6H113.6z M113.6,151.7v16.4h-5.1v-16.4H113.6z"/>
	<path class="st5" d="M126.8,148.1v20h-5V167c-0.5,0.5-1,0.9-1.5,1.1c-0.5,0.2-1.1,0.4-1.7,0.4c-0.8,0-1.4-0.2-2-0.6
		s-0.9-0.9-1.1-1.4s-0.2-1.4-0.2-2.6v-7.7c0-1.3,0.1-2.2,0.2-2.7c0.2-0.5,0.5-1,1.1-1.4s1.3-0.6,2.1-0.6c0.6,0,1.2,0.1,1.7,0.3
		s1,0.6,1.4,1v-4.7H126.8z M121.8,155.9c0-0.6-0.1-1-0.2-1.2s-0.3-0.3-0.6-0.3c-0.3,0-0.5,0.1-0.6,0.3s-0.2,0.6-0.2,1.2v8
		c0,0.7,0,1.1,0.1,1.3s0.3,0.3,0.6,0.3c0.3,0,0.5-0.1,0.6-0.4c0.1-0.2,0.2-0.8,0.2-1.7L121.8,155.9L121.8,155.9z"/>
	<path class="st5" d="M139.9,160.2h-6.5v3.5c0,0.7,0.1,1.2,0.2,1.4c0.1,0.2,0.3,0.3,0.6,0.3c0.4,0,0.6-0.1,0.8-0.4
		c0.1-0.3,0.2-0.8,0.2-1.7v-2.2h4.7v1.2c0,1-0.1,1.8-0.2,2.3c-0.1,0.5-0.4,1.1-0.9,1.7c-0.5,0.6-1.1,1.1-1.8,1.4
		c-0.7,0.3-1.6,0.5-2.7,0.5c-1.1,0-2-0.2-2.8-0.5s-1.4-0.7-1.9-1.3c-0.4-0.5-0.8-1.1-0.9-1.8c-0.2-0.6-0.3-1.6-0.3-2.8V157
		c0-1.4,0.2-2.6,0.6-3.4c0.4-0.8,1-1.5,1.9-1.9s1.9-0.7,3-0.7c1.4,0,2.6,0.3,3.5,0.8s1.6,1.2,1.9,2.1c0.4,0.9,0.5,2.1,0.5,3.7
		L139.9,160.2L139.9,160.2z M134.9,157.6v-1.2c0-0.8,0-1.4-0.1-1.6s-0.3-0.4-0.6-0.4s-0.6,0.1-0.6,0.3c-0.1,0.2-0.1,0.8-0.1,1.7v1.2
		H134.9z"/>
	<path class="st5" d="M146.6,151.7l-0.1,1.5c0.4-0.6,0.8-1.1,1.3-1.4c0.5-0.3,1.1-0.5,1.8-0.5c0.9,0,1.6,0.2,2.1,0.6
		c0.5,0.4,0.9,0.9,1.1,1.5c0.2,0.6,0.2,1.6,0.2,3.1V168h-5v-11.4c0-1.1,0-1.8-0.1-2.1s-0.3-0.4-0.6-0.4c-0.4,0-0.6,0.1-0.7,0.4
		c-0.1,0.3-0.1,1-0.1,2.3v11.1h-5v-16.4h5.1V151.7z"/>
	<path class="st5" d="M160,149.6v2.6h1.3v2.6H160v8.8c0,1.1,0.1,1.7,0.2,1.8c0.1,0.1,0.6,0.2,1.4,0.2v2.6h-2c-1.1,0-2,0-2.4-0.1
		c-0.5-0.1-0.9-0.3-1.3-0.7c-0.4-0.3-0.6-0.7-0.7-1.2s-0.1-1.5-0.1-3.1v-8.3H154v-2.6h1.1v-2.6H160z"/>
	<path class="st5" d="M173.8,160.2h-6.5v3.5c0,0.7,0.1,1.2,0.2,1.4c0.1,0.2,0.3,0.3,0.6,0.3c0.4,0,0.6-0.1,0.8-0.4
		c0.1-0.3,0.2-0.8,0.2-1.7v-2.2h4.7v1.2c0,1-0.1,1.8-0.2,2.3c-0.1,0.5-0.4,1.1-0.9,1.7s-1.1,1.1-1.8,1.4s-1.6,0.5-2.7,0.5
		c-1.1,0-2-0.2-2.8-0.5s-1.4-0.7-1.9-1.3c-0.4-0.5-0.8-1.1-0.9-1.8c-0.2-0.6-0.3-1.6-0.3-2.8V157c0-1.4,0.2-2.6,0.6-3.4
		c0.4-0.8,1-1.5,1.9-1.9s1.9-0.7,3-0.7c1.4,0,2.6,0.3,3.5,0.8s1.5,1.2,1.9,2.1s0.6,2.1,0.6,3.7L173.8,160.2L173.8,160.2z
		 M168.8,157.6v-1.2c0-0.8,0-1.4-0.1-1.6s-0.3-0.4-0.6-0.4s-0.6,0.1-0.6,0.3c-0.1,0.2-0.1,0.8-0.1,1.7v1.2H168.8z"/>
</g>
<path class="st5" d="M137.8,134.4c-3.2,0.6-5.5,0.1-6.5-4.4c-1.1-4.7-6.6-7.3-12-6.8c-4.9,0.4-9.2,3.8-10.1,8.5
	c-0.5,2.5-1.7,2.9-3.7,2.8c-3.3-0.2-6.7-0.2-10,0c-3.1,0.3-4.9-1-6-3.6c-3.5-8.1-3.3-17.3,0.7-25.2c0.9-1.8,2.1-3,4.3-2.6
	c0.9,0.1,1.7,0.1,2.6,0c10.3-1.9,18.5,1.6,24.8,9.9c1.8,2.4,4.3,2.9,7.2,2.8c5.2-0.3,10.4-0.5,14.8,3.3c1.7,1.4,2.7,2.8,2.4,5
	c0,0.7,0,1.5,0,2.2C146.3,134.5,145.1,134.8,137.8,134.4z M119.5,115.7c-3.1-3-5.6-5.1-7.7-7.4c-2.7-2.9-6.1-2.1-9-1.4
	c-2,0.5-0.6,3.5-0.9,5.3c0,0.5,0,1,0,1.5c-0.1,1.3,0.4,2.1,1.9,2.1C108.6,115.7,113.5,115.7,119.5,115.7L119.5,115.7z"/>
<path class="st5" d="M153.9,105.8c-1.3,3.6-2.4,6.5-3.5,9.5c-0.4,1.2-0.8,2-2.4,1.4s-1.9-1.3-1.2-2.8c0.4-1.1,0.8-2.2,1.1-3.3
	c-4.2,0.8-9.1,3.4-9-5.7c-3.5,6.6-7,6.4-10.5,1.9c-0.3,1-0.4,1.3-0.5,1.7c-0.5,1.2,1.2,3.7-1.7,3.5c-2.5-0.1-1.4-2.2-1.5-3.5
	c-0.1-2.7,0-5.4,0-9c2.3,1.9,4.3,3.2,6,4.9c2.3,2.2,3.9,2.5,5.5-0.6c1.2-1.9,2.5-3.6,3.9-5.3c0.9,2.9,1.6,5.2,2.1,7.6
	c0.4,2,1.4,2.3,3.1,1.8C148.1,107.1,150.7,106.6,153.9,105.8z"/>
</svg>
