<?xml version="1.0" encoding="utf-8"?>
<!-- Generator: Adobe Illustrator 24.1.1, SVG Export Plug-In . SVG Version: 6.00 Build 0)  -->
<svg version="1.1" id="Capa_1" xmlns="http://www.w3.org/2000/svg" xmlns:xlink="http://www.w3.org/1999/xlink" x="0px" y="0px"
	 viewBox="0 0 230 196.3" style="enable-background:new 0 0 230 196.3;" xml:space="preserve">
<style type="text/css">
	.st0{fill:none;stroke:#56540C;stroke-width:20;stroke-miterlimit:10;}
	.st1{fill:#F3F3F3;}
	.st2{fill:#1C1D20;}
	.st3{fill:#EAEAEA;}
	.st4{fill:none;stroke:#AD9A2B;stroke-width:18;stroke-miterlimit:10;}
	.st5{enable-background:new    ;}
</style>
<path id="sombra" class="st0" d="M102.6,14.5L11.2,172.7c-2.5,4.3-1,9.9,3.3,12.4c1.4,0.8,2.9,1.2,4.5,1.2h182.7c5,0,9-4.1,9-9.1
	c0-1.6-0.4-3.1-1.2-4.5L118.2,14.5c-2.5-4.3-8.1-5.8-12.4-3.3C104.5,12,103.4,13.2,102.6,14.5z"/>
<path id="white" class="st1" d="M113.4,13.9l-93,161c-2.1,3.7-0.9,8.4,2.8,10.5c1.2,0.7,2.5,1,3.8,1h186c4.2,0,7.7-3.4,7.7-7.7
	c0-1.3-0.4-2.7-1-3.8l-93-161c-2.1-3.7-6.8-4.9-10.5-2.8C115,11.8,114.1,12.7,113.4,13.9z"/>
<path class="st2" d="M124.8,83.7c0-3.1,2.5-5.6,5.6-5.6s5.6,2.5,5.6,5.6s-2.5,5.6-5.6,5.6l0,0C127.2,89.2,124.8,86.8,124.8,83.7"/>
<path class="st2" d="M131.5,131.2c-4.3,0-4.3,3.7-4.3,3.7c-2.9,0-5.5,1.7-6.8,4.3h45.1c-1.2-5.6-6.2-4.9-6.2-4.9
	c0-1.9-2.5-2.5-2.5-2.5c-0.6-5.5-5.6-4.9-5.6-4.9c-6.8-8.6-14.8-1.2-14.8-1.2l-16.1-13.6c0,0,7.4-15.4,7.4-16.1c1.9-3.1,0-4.3,0-4.3
	l-6.2-9.9c-0.6-1.9-3.1-1.2-3.1-1.2l-16.1,0.6c-1.3,0-2.4,1-2.5,2.4v0.1l-1.9,10.5l-2.5-2.5c-0.6-0.4-1.4-0.2-1.8,0.4
	c-0.5,0.6-0.5,1.5-0.1,2.1l5.6,5.6l-3.1,3.1l1,19.1l-4.3,13.6c-1.2,3.7,2.5,4.9,2.5,4.9c3.1,1.2,4.9-2.5,4.9-2.5l4.9-14.8v-11.8
	l7.4,9.3l-7.4,14.2c-1.2,3.1,1.9,4.9,1.9,4.9c1.9,1.2,4.4,0.6,5.6-1.3l8-15.4c1.9-3.7,0-5.6,0-5.6l-0.6-1.9l14.2,12.4
	C132.5,128.5,131.5,129.7,131.5,131.2z M104.3,92.9l1.2-5.6h4.3L104.3,92.9z M114.8,107.1l-3.7-2.5l6.2-3.7L114.8,107.1z"/>
<rect x="-19.5" y="96.7" transform="matrix(0.5 -0.866 0.866 0.5 -50.3849 114.8745)" class="st3" width="187.6" height="8.8"/>
<path id="borde" class="st4" d="M113.7,14.1l-93,161c-2.1,3.7-0.9,8.3,2.8,10.5c1.2,0.7,2.5,1,3.9,1h186c4.2,0,7.7-3.4,7.7-7.6
	c0-1.4-0.4-2.7-1-3.9l-93-161c-2.1-3.7-6.8-4.9-10.5-2.8C115.3,12,114.4,13,113.7,14.1z"/>
<g class="st5">
	<path class="st2" d="M103.4,161.1c0,2,0,3.4-0.1,4.3s-0.4,1.6-0.9,2.3s-1.2,1.2-2,1.6c-0.8,0.4-1.8,0.6-3,0.6c-1.1,0-2-0.2-2.9-0.5
		s-1.5-0.9-2.1-1.6c-0.5-0.7-0.8-1.5-0.9-2.3s-0.1-2.3-0.1-4.3v-3.4c0-2,0-3.4,0.1-4.3s0.4-1.6,0.9-2.3s1.2-1.2,2-1.6s1.8-0.6,3-0.6
		c1.1,0,2,0.2,2.9,0.5s1.5,0.9,2.1,1.6c0.5,0.7,0.8,1.5,0.9,2.3s0.1,2.3,0.1,4.3V161.1z M98.2,154.5c0-0.9-0.1-1.5-0.2-1.8
		s-0.3-0.4-0.6-0.4c-0.3,0-0.5,0.1-0.6,0.3s-0.2,0.8-0.2,1.9v9.4c0,1.2,0,1.9,0.1,2.2s0.3,0.4,0.7,0.4c0.4,0,0.6-0.2,0.7-0.5
		s0.1-1.1,0.1-2.2V154.5z"/>
	<path class="st2" d="M110.2,149.4v4.7c0.4-0.5,0.9-0.8,1.4-1.1c0.5-0.2,1.1-0.4,1.7-0.4c0.7,0,1.3,0.1,1.8,0.3s0.9,0.5,1.2,0.9
		c0.3,0.4,0.4,0.8,0.5,1.1s0.1,1.2,0.1,2.4v7.4c0,1.2-0.1,2.1-0.2,2.7c-0.2,0.6-0.5,1.1-1.1,1.5s-1.3,0.6-2.1,0.6
		c-0.6,0-1.1-0.1-1.6-0.4c-0.5-0.3-1-0.6-1.4-1.2l-0.3,1.2h-4.7v-20h4.7V149.4z M111.7,157.7c0-0.8-0.1-1.4-0.2-1.7
		s-0.3-0.4-0.6-0.4c-0.3,0-0.5,0.1-0.6,0.3s-0.1,0.8-0.1,1.7v7.1c0,0.9,0.1,1.4,0.2,1.7c0.1,0.2,0.3,0.4,0.6,0.4
		c0.3,0,0.5-0.1,0.6-0.4s0.1-0.9,0.1-1.8V157.7z"/>
	<path class="st2" d="M123.3,153l-0.2,2.2c0.7-1.5,1.8-2.4,3.2-2.5v5.8c-0.9,0-1.6,0.1-2,0.4s-0.7,0.6-0.8,1c-0.1,0.4-0.1,1.5-0.1,3
		v6.5h-5V153H123.3z"/>
	<path class="st2" d="M131.9,159.4h-4.7v-1.1c0-1.3,0.1-2.2,0.4-2.9s0.9-1.3,1.8-1.8s2-0.8,3.4-0.8c1.7,0,3,0.3,3.8,0.9
		s1.4,1.3,1.5,2.2c0.2,0.9,0.3,2.7,0.3,5.4v8.2h-4.9V168c-0.3,0.6-0.7,1-1.2,1.3s-1.1,0.4-1.7,0.4c-0.9,0-1.7-0.2-2.4-0.7
		s-1.1-1.6-1.1-3.2v-1.3c0-1.2,0.2-2.1,0.6-2.5c0.4-0.4,1.3-1,2.9-1.6c1.6-0.6,2.5-1.1,2.6-1.3s0.2-0.7,0.2-1.4
		c0-0.9-0.1-1.4-0.2-1.7c-0.1-0.3-0.3-0.4-0.6-0.4s-0.5,0.1-0.6,0.3s-0.1,0.8-0.1,1.7V159.4z M133.4,161.6c-0.8,0.6-1.3,1.1-1.4,1.5
		c-0.1,0.4-0.2,1-0.2,1.7c0,0.8,0.1,1.4,0.2,1.6c0.1,0.2,0.3,0.4,0.7,0.4c0.3,0,0.5-0.1,0.6-0.3s0.1-0.7,0.1-1.5L133.4,161.6
		L133.4,161.6z"/>
	<path class="st2" d="M150.4,158.2H146v-0.9c0-0.8,0-1.2-0.1-1.4s-0.3-0.3-0.6-0.3s-0.5,0.1-0.6,0.3s-0.2,0.5-0.2,0.8
		c0,0.5,0,0.9,0.1,1.1c0.1,0.2,0.3,0.5,0.6,0.8s1.1,0.7,2.2,1.2c1.5,0.7,2.4,1.4,2.9,2s0.7,1.5,0.7,2.7c0,1.3-0.2,2.3-0.5,3
		s-0.9,1.2-1.7,1.6c-0.8,0.4-1.8,0.6-2.9,0.6c-1.3,0-2.4-0.2-3.3-0.6c-0.9-0.4-1.5-0.9-1.9-1.6c-0.3-0.7-0.5-1.7-0.5-3.1v-0.8h4.4v1
		c0,0.9,0.1,1.5,0.2,1.7c0.1,0.3,0.3,0.4,0.7,0.4s0.6-0.1,0.7-0.3c0.1-0.2,0.2-0.5,0.2-1.1c0-0.8-0.1-1.3-0.3-1.5s-1.2-0.8-2.9-1.8
		c-1.5-0.8-2.4-1.6-2.7-2.2s-0.5-1.5-0.5-2.4c0-1.3,0.2-2.3,0.5-2.9c0.3-0.6,0.9-1.1,1.8-1.4c0.8-0.3,1.8-0.5,2.9-0.5
		c1.1,0,2,0.1,2.8,0.4s1.3,0.6,1.8,1.1c0.4,0.5,0.7,0.9,0.7,1.3c0.1,0.4,0.1,1,0.1,1.8v1H150.4z"/>
</g>
</svg>
