<?xml version="1.0" encoding="utf-8"?>
<!-- Generator: Adobe Illustrator 24.1.1, SVG Export Plug-In . SVG Version: 6.00 Build 0)  -->
<svg version="1.1" id="Capa_1" xmlns="http://www.w3.org/2000/svg" xmlns:xlink="http://www.w3.org/1999/xlink" x="0px" y="0px"
	 viewBox="0 0 230 196.3" style="enable-background:new 0 0 230 196.3;" xml:space="preserve">
<style type="text/css">
	.st0{fill:none;stroke:#6D2915;stroke-width:20;stroke-miterlimit:10;}
	.st1{fill:#F3F3F3;}
	.st2{fill:#EAEAEA;}
	.st3{fill:none;stroke:#AA4B29;stroke-width:18;stroke-miterlimit:10;}
	.st4{enable-background:new    ;}
	.st5{fill:#303030;}
</style>
<path id="sombra" class="st0" d="M102.6,14.5L11.2,172.7c-2.5,4.3-1,9.9,3.3,12.4c1.4,0.8,2.9,1.2,4.5,1.2h182.7c5,0,9-3.9,9.1-8.9
	c0-1.6-0.4-3.3-1.3-4.7L118.2,14.5c-2.5-4.3-8.1-5.8-12.4-3.3C104.5,12,103.4,13.2,102.6,14.5z"/>
<path id="white" class="st1" d="M113.4,13.9l-93,161c-2.1,3.7-0.9,8.4,2.8,10.5c1.2,0.7,2.5,1,3.8,1h186c4.2,0,7.7-3.4,7.7-7.7
	c0-1.3-0.4-2.7-1-3.8l-93-161c-2.1-3.7-6.8-4.9-10.5-2.8C115,11.8,114.1,12.8,113.4,13.9z"/>
<rect x="-19.5" y="96.7" transform="matrix(0.5 -0.866 0.866 0.5 -50.4096 114.8699)" class="st2" width="187.6" height="8.8"/>
<path id="borde" class="st3" d="M113.7,14.1l-93,161c-2.1,3.7-0.9,8.4,2.8,10.5c1.2,0.7,2.5,1,3.8,1h186c4.2,0,7.7-3.4,7.7-7.7
	c0-1.3-0.4-2.7-1-3.8l-93-161c-2.1-3.7-6.8-4.9-10.5-2.8C115.4,12,114.4,12.9,113.7,14.1z"/>
<g class="st4">
	<path class="st5" d="M78.8,159.9c0,2,0,3.4-0.1,4.3s-0.4,1.6-0.9,2.3s-1.2,1.2-2,1.6c-0.8,0.4-1.8,0.6-3,0.6c-1.1,0-2-0.2-2.9-0.5
		c-0.9-0.3-1.5-0.9-2.1-1.6c-0.5-0.7-0.8-1.5-0.9-2.3c-0.1-0.8-0.1-2.3-0.1-4.3v-3.4c0-2,0-3.4,0.1-4.3s0.4-1.6,0.9-2.3
		c0.5-0.7,1.2-1.2,2-1.6s1.8-0.6,3-0.6c1.1,0,2,0.2,2.9,0.5s1.5,0.9,2.1,1.6c0.5,0.7,0.8,1.5,0.9,2.3c0.1,0.8,0.1,2.3,0.1,4.3V159.9
		z M73.6,153.3c0-0.9-0.1-1.5-0.2-1.8c-0.1-0.3-0.3-0.4-0.6-0.4c-0.3,0-0.5,0.1-0.6,0.3c-0.1,0.2-0.2,0.8-0.2,1.9v9.4
		c0,1.2,0,1.9,0.1,2.2c0.1,0.3,0.3,0.4,0.7,0.4c0.4,0,0.6-0.2,0.7-0.5c0.1-0.3,0.1-1.1,0.1-2.2V153.3z"/>
	<path class="st5" d="M85.8,149.6v2.6h1.3v2.6h-1.3v8.8c0,1.1,0.1,1.7,0.2,1.8c0.1,0.1,0.6,0.2,1.4,0.2v2.6h-2c-1.1,0-2,0-2.4-0.1
		c-0.5-0.1-0.9-0.3-1.3-0.7c-0.4-0.3-0.6-0.7-0.7-1.2s-0.1-1.5-0.1-3.1v-8.3h-1.1v-2.6h1.1v-2.6H85.8z"/>
	<path class="st5" d="M93.3,151.7l-0.2,2.2c0.7-1.5,1.8-2.4,3.2-2.5v5.8c-0.9,0-1.6,0.1-2,0.4s-0.7,0.6-0.8,1
		c-0.1,0.4-0.1,1.5-0.1,3v6.5h-5v-16.4H93.3z"/>
	<path class="st5" d="M101.8,158.1h-4.7V157c0-1.3,0.1-2.2,0.4-2.9c0.3-0.7,0.9-1.3,1.8-1.8c0.9-0.5,2-0.8,3.4-0.8
		c1.7,0,3,0.3,3.8,0.9s1.4,1.3,1.5,2.2c0.2,0.9,0.3,2.7,0.3,5.4v8.2h-4.9v-1.5c-0.3,0.6-0.7,1-1.2,1.3c-0.5,0.3-1.1,0.4-1.7,0.4
		c-0.9,0-1.7-0.2-2.4-0.7c-0.7-0.5-1.1-1.6-1.1-3.2v-1.3c0-1.2,0.2-2.1,0.6-2.5s1.3-1,2.9-1.6c1.6-0.6,2.5-1.1,2.6-1.3
		c0.1-0.2,0.2-0.7,0.2-1.4c0-0.9-0.1-1.4-0.2-1.7c-0.1-0.3-0.3-0.4-0.6-0.4c-0.3,0-0.5,0.1-0.6,0.3c-0.1,0.2-0.1,0.8-0.1,1.7V158.1z
		 M103.4,160.4c-0.8,0.6-1.3,1.1-1.4,1.5c-0.1,0.4-0.2,1-0.2,1.7c0,0.8,0.1,1.4,0.2,1.6c0.1,0.2,0.3,0.4,0.7,0.4
		c0.3,0,0.5-0.1,0.6-0.3c0.1-0.2,0.1-0.7,0.1-1.5V160.4z"/>
	<path class="st5" d="M119.1,158.1h-4.7V157c0-1.3,0.1-2.2,0.4-2.9c0.3-0.7,0.9-1.3,1.8-1.8c0.9-0.5,2-0.8,3.4-0.8
		c1.7,0,3,0.3,3.8,0.9s1.4,1.3,1.5,2.2s0.3,2.7,0.3,5.4v8.2h-4.9v-1.5c-0.3,0.6-0.7,1-1.2,1.3c-0.5,0.3-1.1,0.4-1.7,0.4
		c-0.9,0-1.7-0.2-2.4-0.7c-0.7-0.5-1.1-1.6-1.1-3.2v-1.3c0-1.2,0.2-2.1,0.6-2.5s1.3-1,2.9-1.6c1.6-0.6,2.5-1.1,2.6-1.3
		s0.2-0.7,0.2-1.4c0-0.9-0.1-1.4-0.2-1.7s-0.3-0.4-0.6-0.4c-0.3,0-0.5,0.1-0.6,0.3c-0.1,0.2-0.1,0.8-0.1,1.7V158.1z M120.6,160.4
		c-0.8,0.6-1.3,1.1-1.4,1.5c-0.1,0.4-0.2,1-0.2,1.7c0,0.8,0.1,1.4,0.2,1.6c0.1,0.2,0.3,0.4,0.7,0.4c0.3,0,0.5-0.1,0.6-0.3
		c0.1-0.2,0.1-0.7,0.1-1.5V160.4z"/>
	<path class="st5" d="M132.5,148.1v20h-5.1v-20H132.5z"/>
	<path class="st5" d="M145.6,160.2h-6.5v3.5c0,0.7,0.1,1.2,0.2,1.4c0.1,0.2,0.3,0.3,0.6,0.3c0.4,0,0.6-0.1,0.8-0.4
		c0.1-0.3,0.2-0.8,0.2-1.7v-2.2h4.7v1.2c0,1-0.1,1.8-0.2,2.3c-0.1,0.5-0.4,1.1-0.9,1.7s-1.1,1.1-1.8,1.4s-1.6,0.5-2.7,0.5
		c-1.1,0-2-0.2-2.8-0.5c-0.8-0.3-1.4-0.7-1.9-1.3c-0.4-0.5-0.8-1.1-0.9-1.8c-0.2-0.6-0.3-1.6-0.3-2.8v-4.8c0-1.4,0.2-2.6,0.6-3.4
		c0.4-0.8,1-1.5,1.9-1.9c0.9-0.4,1.9-0.7,3-0.7c1.4,0,2.6,0.3,3.5,0.8c0.9,0.5,1.5,1.2,1.9,2.1s0.6,2.1,0.6,3.7V160.2z M140.6,157.6
		v-1.2c0-0.8,0-1.4-0.1-1.6s-0.3-0.4-0.6-0.4c-0.3,0-0.6,0.1-0.6,0.3c-0.1,0.2-0.1,0.8-0.1,1.7v1.2H140.6z"/>
</g>
<g class="st4">
	<path class="st5" d="M152.3,151.7l-0.2,2.2c0.7-1.5,1.8-2.4,3.2-2.5v5.8c-0.9,0-1.6,0.1-2,0.4s-0.7,0.6-0.8,1
		c-0.1,0.4-0.1,1.5-0.1,3v6.5h-5v-16.4H152.3z"/>
</g>
<g class="st4">
	<path class="st5" d="M162,149.6v2.6h1.3v2.6H162v8.8c0,1.1,0.1,1.7,0.2,1.8c0.1,0.1,0.6,0.2,1.4,0.2v2.6h-2c-1.1,0-2,0-2.4-0.1
		c-0.5-0.1-0.9-0.3-1.3-0.7c-0.4-0.3-0.6-0.7-0.7-1.2s-0.1-1.5-0.1-3.1v-8.3H156v-2.6h1.1v-2.6H162z"/>
	<path class="st5" d="M169,158.1h-4.7V157c0-1.3,0.1-2.2,0.4-2.9c0.3-0.7,0.9-1.3,1.8-1.8c0.9-0.5,2-0.8,3.4-0.8
		c1.7,0,3,0.3,3.8,0.9s1.4,1.3,1.5,2.2s0.3,2.7,0.3,5.4v8.2h-4.9v-1.5c-0.3,0.6-0.7,1-1.2,1.3c-0.5,0.3-1.1,0.4-1.7,0.4
		c-0.9,0-1.7-0.2-2.4-0.7c-0.7-0.5-1.1-1.6-1.1-3.2v-1.3c0-1.2,0.2-2.1,0.6-2.5s1.3-1,2.9-1.6c1.6-0.6,2.5-1.1,2.6-1.3
		s0.2-0.7,0.2-1.4c0-0.9-0.1-1.4-0.2-1.7s-0.3-0.4-0.6-0.4c-0.3,0-0.5,0.1-0.6,0.3c-0.1,0.2-0.1,0.8-0.1,1.7V158.1z M170.5,160.4
		c-0.8,0.6-1.3,1.1-1.4,1.5c-0.1,0.4-0.2,1-0.2,1.7c0,0.8,0.1,1.4,0.2,1.6c0.1,0.2,0.3,0.4,0.7,0.4c0.3,0,0.5-0.1,0.6-0.3
		c0.1-0.2,0.1-0.7,0.1-1.5V160.4z"/>
</g>
<path d="M123,72.3c2.9,0,7.1,0.5,7.2,3.8c0,1.3-0.2,2.5-0.3,3.8c-0.9,5.5-3.4,19-4.8,29.8H121c-1.2-10-3.7-23.6-4.7-29.6
	c-0.3-1.3-0.5-2.7-0.6-4C115.6,73.1,119.9,72.3,123,72.3z M123.1,130.4c-4,0-7-2.9-7-7.2c0.1-3.9,3.4-6.9,7.2-6.8
	c3.9,0.1,6.9,3.4,6.8,7.2C130,127.4,126.9,130.4,123.1,130.4z"/>
</svg>
