<?xml version="1.0" encoding="utf-8"?>
<!-- Generator: Adobe Illustrator 24.1.1, SVG Export Plug-In . SVG Version: 6.00 Build 0)  -->
<svg version="1.1" id="Capa_1" xmlns="http://www.w3.org/2000/svg" xmlns:xlink="http://www.w3.org/1999/xlink" x="0px" y="0px"
	 viewBox="0 0 230 196.3" style="enable-background:new 0 0 230 196.3;" xml:space="preserve">
<style type="text/css">
	.st0{fill:none;stroke:#235A7C;stroke-width:20;stroke-miterlimit:10;}
	.st1{fill:#F3F3F3;}
	.st2{fill:#EAEAEA;}
	.st3{fill:none;stroke:#3178AD;stroke-width:18;stroke-miterlimit:10;}
	.st4{enable-background:new    ;}
	.st5{fill:#303030;}
</style>
<path id="sombra" class="st0" d="M102.6,14.5L11.2,172.7c-2.5,4.3-1,9.9,3.3,12.4c1.4,0.8,2.9,1.2,4.5,1.2h182.7c5,0,9-3.9,9.1-8.9
	c0-1.6-0.4-3.3-1.3-4.7L118.2,14.5c-2.5-4.3-8.1-5.8-12.4-3.3C104.5,12,103.4,13.2,102.6,14.5z"/>
<path id="white" class="st1" d="M113.4,13.9l-93,161c-2.1,3.7-0.9,8.4,2.8,10.5c1.2,0.7,2.5,1,3.8,1h186c4.2,0,7.7-3.4,7.7-7.7
	c0-1.3-0.4-2.7-1-3.8l-93-161c-2.1-3.7-6.8-4.9-10.5-2.8C115,11.8,114.1,12.8,113.4,13.9z"/>
<rect x="-19.5" y="96.7" transform="matrix(0.5 -0.866 0.866 0.5 -50.4096 114.8699)" class="st2" width="187.6" height="8.8"/>
<path id="borde" class="st3" d="M113.7,14.1l-93,161c-2.1,3.7-0.9,8.4,2.8,10.5c1.2,0.7,2.5,1,3.8,1h186c4.2,0,7.7-3.4,7.7-7.7
	c0-1.3-0.4-2.7-1-3.8l-93-161c-2.1-3.7-6.8-4.9-10.5-2.8C115.4,12,114.4,12.9,113.7,14.1z"/>
<g class="st4">
	<path class="st5" d="M91.4,148.1h3.7c2.5,0,4.1,0.1,5,0.3c0.9,0.2,1.6,0.7,2.1,1.5s0.8,2,0.8,3.7c0,1.6-0.2,2.6-0.6,3.1
		s-1.1,0.9-2.3,1c1,0.3,1.7,0.6,2.1,1s0.6,0.8,0.7,1.2c0.1,0.4,0.1,1.3,0.1,3v5.3h-4.8v-6.7c0-1.1-0.1-1.7-0.3-2
		c-0.2-0.3-0.6-0.4-1.3-0.4v9h-5.2V148.1z M96.7,151.6v4.5c0.6,0,1-0.1,1.2-0.2s0.4-0.7,0.4-1.6v-1.1c0-0.6-0.1-1.1-0.3-1.2
		C97.7,151.7,97.3,151.6,96.7,151.6z"/>
	<path class="st5" d="M109.4,158.1h-4.7V157c0-1.3,0.1-2.2,0.4-2.9c0.3-0.7,0.9-1.3,1.8-1.8c0.9-0.5,2-0.8,3.4-0.8
		c1.7,0,3,0.3,3.8,0.9s1.4,1.3,1.5,2.2c0.2,0.9,0.3,2.7,0.3,5.4v8.2h-4.9v-1.5c-0.3,0.6-0.7,1-1.2,1.3c-0.5,0.3-1.1,0.4-1.7,0.4
		c-0.9,0-1.7-0.2-2.4-0.7c-0.7-0.5-1.1-1.6-1.1-3.2v-1.3c0-1.2,0.2-2.1,0.6-2.5s1.3-1,2.9-1.6c1.6-0.6,2.5-1.1,2.6-1.3
		c0.1-0.2,0.2-0.7,0.2-1.4c0-0.9-0.1-1.4-0.2-1.7c-0.1-0.3-0.3-0.4-0.6-0.4c-0.3,0-0.5,0.1-0.6,0.3c-0.1,0.2-0.1,0.8-0.1,1.7V158.1z
		 M111,160.4c-0.8,0.6-1.3,1.1-1.4,1.5c-0.1,0.4-0.2,1-0.2,1.7c0,0.8,0.1,1.4,0.2,1.6c0.1,0.2,0.3,0.4,0.7,0.4
		c0.3,0,0.5-0.1,0.6-0.3c0.1-0.2,0.1-0.7,0.1-1.5V160.4z"/>
	<path class="st5" d="M129.1,148.1v20h-5V167c-0.5,0.5-1,0.9-1.5,1.1c-0.5,0.2-1.1,0.4-1.7,0.4c-0.8,0-1.4-0.2-2-0.6
		c-0.6-0.4-0.9-0.9-1.1-1.4c-0.2-0.5-0.2-1.4-0.2-2.6v-7.7c0-1.3,0.1-2.2,0.2-2.7c0.2-0.5,0.5-1,1.1-1.4c0.6-0.4,1.3-0.6,2.1-0.6
		c0.6,0,1.2,0.1,1.7,0.3c0.5,0.2,1,0.6,1.4,1v-4.7H129.1z M124.1,155.9c0-0.6-0.1-1-0.2-1.2c-0.1-0.2-0.3-0.3-0.6-0.3
		c-0.3,0-0.5,0.1-0.6,0.3c-0.1,0.2-0.2,0.6-0.2,1.2v8c0,0.7,0,1.1,0.1,1.3c0.1,0.2,0.3,0.3,0.6,0.3c0.3,0,0.5-0.1,0.6-0.4
		c0.1-0.2,0.2-0.8,0.2-1.7V155.9z"/>
	<path class="st5" d="M135.3,158.1h-4.7V157c0-1.3,0.1-2.2,0.4-2.9c0.3-0.7,0.9-1.3,1.8-1.8c0.9-0.5,2-0.8,3.4-0.8
		c1.7,0,3,0.3,3.8,0.9s1.4,1.3,1.5,2.2s0.3,2.7,0.3,5.4v8.2h-4.9v-1.5c-0.3,0.6-0.7,1-1.2,1.3c-0.5,0.3-1.1,0.4-1.7,0.4
		c-0.9,0-1.7-0.2-2.4-0.7c-0.7-0.5-1.1-1.6-1.1-3.2v-1.3c0-1.2,0.2-2.1,0.6-2.5s1.3-1,2.9-1.6c1.6-0.6,2.5-1.1,2.6-1.3
		s0.2-0.7,0.2-1.4c0-0.9-0.1-1.4-0.2-1.7s-0.3-0.4-0.6-0.4c-0.3,0-0.5,0.1-0.6,0.3c-0.1,0.2-0.1,0.8-0.1,1.7V158.1z M136.9,160.4
		c-0.8,0.6-1.3,1.1-1.4,1.5c-0.1,0.4-0.2,1-0.2,1.7c0,0.8,0.1,1.4,0.2,1.6c0.1,0.2,0.3,0.4,0.7,0.4c0.3,0,0.5-0.1,0.6-0.3
		c0.1-0.2,0.1-0.7,0.1-1.5V160.4z"/>
	<path class="st5" d="M148.6,151.7l-0.2,2.2c0.7-1.5,1.8-2.4,3.2-2.5v5.8c-0.9,0-1.6,0.1-2,0.4s-0.7,0.6-0.8,1
		c-0.1,0.4-0.1,1.5-0.1,3v6.5h-5v-16.4H148.6z"/>
</g>
<path class="st5" d="M110.4,91.1c4.6,0,9.2,0.1,13.8,0c2.2-0.1,3.2,0.4,3.1,2.9c-0.2,4.6-0.1,9.2,0,13.8c0.1,2.1-0.6,2.9-2.7,2.8
	c-3.4-0.1-6.7,0.1-10.1-0.1c-2.5-0.2-3.8,0.6-4.6,3.2c-1.2,4.3-2.9,8.5-4.1,12.8c-0.8,2.8-2.1,4-4.9,3.5c-0.6-0.1-1.2-0.1-1.9,0
	c-4.1,0-4.1,0-2.8-4s2.7-8.3,4.2-12.4c0.8-2.1,0.6-3.1-2.1-3.1c-7.7-0.1-8.3-0.8-8.3-8.4c0-11,0-11,11-11L110.4,91.1z"/>
<path class="st5" d="M151.4,100.8c0,6.9-2.4,13.6-6.8,18.9c-0.8,0.9-1.5,2.7-3.1,1c-1.2-1.3-3-2.1-1.1-4.5
	c6.3-8.2,7.4-17.2,2.8-26.6c-0.6-1.4-1.4-2.6-2.5-3.7c-2.2-2.1-0.9-3.3,0.7-4.8c2.2-2.2,2.9,0.5,3.6,1.4
	C149.3,87.7,151.5,94.1,151.4,100.8z"/>
<path class="st5" d="M140.6,100.4c-0.2,4.9-1.4,8.6-3.9,11.9c-0.6,0.8-1.2,2.4-2.5,0.9c-0.9-1.1-3.5-1.7-2-3.7
	c4-5.8,4.1-11.4-0.1-17.3c-1.4-1.9,1.2-2.6,2.1-3.7c1.2-1.4,1.9,0.1,2.5,0.9C139.2,92.6,140.6,96.4,140.6,100.4z"/>
</svg>
