<?xml version="1.0" encoding="utf-8"?>
<!-- Generator: Adobe Illustrator 24.1.1, SVG Export Plug-In . SVG Version: 6.00 Build 0)  -->
<svg version="1.1" id="Capa_1" xmlns="http://www.w3.org/2000/svg" xmlns:xlink="http://www.w3.org/1999/xlink" x="0px" y="0px"
	 viewBox="0 0 230 196.3" style="enable-background:new 0 0 230 196.3;" xml:space="preserve">
<style type="text/css">
	.st0{fill:none;stroke:#551F75;stroke-width:20;stroke-miterlimit:10;}
	.st1{fill:#F3F3F3;}
	.st2{fill:#EAEAEA;}
	.st3{fill:none;stroke:#8223AF;stroke-width:18;stroke-miterlimit:10;}
	.st4{enable-background:new    ;}
	.st5{fill:#303030;}
	.st6{fill:#FFFFFF;}
</style>
<path id="sombra" class="st0" d="M102.6,14.5L11.2,172.7c-2.5,4.3-1,9.9,3.3,12.4c1.4,0.8,2.9,1.2,4.5,1.2h182.7c5,0,9-3.9,9.1-8.9
	c0-1.6-0.4-3.3-1.3-4.7L118.2,14.5c-2.5-4.3-8.1-5.8-12.4-3.3C104.5,12,103.4,13.2,102.6,14.5z"/>
<path id="white" class="st1" d="M113.4,13.9l-93,161c-2.1,3.7-0.9,8.4,2.8,10.5c1.2,0.7,2.5,1,3.8,1h186c4.2,0,7.7-3.4,7.7-7.7
	c0-1.3-0.4-2.7-1-3.8l-93-161c-2.1-3.7-6.8-4.9-10.5-2.8C115,11.8,114.1,12.8,113.4,13.9z"/>
<rect x="-19.5" y="96.7" transform="matrix(0.5 -0.866 0.866 0.5 -50.4096 114.8699)" class="st2" width="187.6" height="8.8"/>
<path id="borde" class="st3" d="M113.7,14.1l-93,161c-2.1,3.7-0.9,8.4,2.8,10.5c1.2,0.7,2.5,1,3.8,1h186c4.2,0,7.7-3.4,7.7-7.7
	c0-1.3-0.4-2.7-1-3.8l-93-161c-2.1-3.7-6.8-4.9-10.5-2.8C115.4,12,114.4,12.9,113.7,14.1z"/>
<g class="st4">
	<path class="st5" d="M56.6,148.1h3.7c2.5,0,4.1,0.1,5,0.3c0.9,0.2,1.6,0.7,2.1,1.5s0.8,2,0.8,3.7c0,1.6-0.2,2.6-0.6,3.1
		s-1.1,0.9-2.3,1c1,0.3,1.7,0.6,2.1,1s0.6,0.8,0.7,1.2c0.1,0.4,0.1,1.3,0.1,3v5.3h-4.8v-6.7c0-1.1-0.1-1.7-0.3-2
		c-0.2-0.3-0.6-0.4-1.3-0.4v9h-5.2V148.1z M61.8,151.6v4.5c0.6,0,1-0.1,1.2-0.2s0.4-0.7,0.4-1.6v-1.1c0-0.6-0.1-1.1-0.3-1.2
		C62.9,151.7,62.4,151.6,61.8,151.6z"/>
	<path class="st5" d="M81.4,160.2H75v3.5c0,0.7,0.1,1.2,0.2,1.4c0.1,0.2,0.3,0.3,0.6,0.3c0.4,0,0.6-0.1,0.8-0.4
		c0.1-0.3,0.2-0.8,0.2-1.7v-2.2h4.7v1.2c0,1-0.1,1.8-0.2,2.3c-0.1,0.5-0.4,1.1-0.9,1.7c-0.5,0.6-1.1,1.1-1.8,1.4
		c-0.7,0.3-1.6,0.5-2.7,0.5c-1.1,0-2-0.2-2.8-0.5c-0.8-0.3-1.4-0.7-1.9-1.3c-0.4-0.5-0.8-1.1-0.9-1.8c-0.2-0.6-0.3-1.6-0.3-2.8v-4.8
		c0-1.4,0.2-2.6,0.6-3.4c0.4-0.8,1-1.5,1.9-1.9c0.9-0.4,1.9-0.7,3-0.7c1.4,0,2.6,0.3,3.5,0.8c0.9,0.5,1.6,1.2,1.9,2.1
		c0.4,0.9,0.6,2.1,0.6,3.7V160.2z M76.4,157.6v-1.2c0-0.8,0-1.4-0.1-1.6s-0.3-0.4-0.6-0.4c-0.3,0-0.6,0.1-0.6,0.3s-0.1,0.8-0.1,1.7
		v1.2H76.4z"/>
	<path class="st5" d="M88.3,149.6v2.6h1.3v2.6h-1.3v8.8c0,1.1,0.1,1.7,0.2,1.8c0.1,0.1,0.6,0.2,1.4,0.2v2.6h-2c-1.1,0-2,0-2.4-0.1
		c-0.5-0.1-0.9-0.3-1.3-0.7c-0.4-0.3-0.6-0.7-0.7-1.2s-0.1-1.5-0.1-3.1v-8.3h-1.1v-2.6h1.1v-2.6H88.3z"/>
	<path class="st5" d="M102.1,160.2h-6.5v3.5c0,0.7,0.1,1.2,0.2,1.4c0.1,0.2,0.3,0.3,0.6,0.3c0.4,0,0.6-0.1,0.8-0.4
		c0.1-0.3,0.2-0.8,0.2-1.7v-2.2h4.7v1.2c0,1-0.1,1.8-0.2,2.3c-0.1,0.5-0.4,1.1-0.9,1.7c-0.5,0.6-1.1,1.1-1.8,1.4
		c-0.7,0.3-1.6,0.5-2.7,0.5c-1.1,0-2-0.2-2.8-0.5c-0.8-0.3-1.4-0.7-1.9-1.3c-0.4-0.5-0.8-1.1-0.9-1.8c-0.2-0.6-0.3-1.6-0.3-2.8v-4.8
		c0-1.4,0.2-2.6,0.6-3.4c0.4-0.8,1-1.5,1.9-1.9c0.9-0.4,1.9-0.7,3-0.7c1.4,0,2.6,0.3,3.5,0.8c0.9,0.5,1.6,1.2,1.9,2.1
		c0.4,0.9,0.6,2.1,0.6,3.7V160.2z M97.1,157.6v-1.2c0-0.8,0-1.4-0.1-1.6s-0.3-0.4-0.6-0.4c-0.3,0-0.6,0.1-0.6,0.3s-0.1,0.8-0.1,1.7
		v1.2H97.1z"/>
	<path class="st5" d="M108.8,151.7l-0.1,1.5c0.4-0.6,0.8-1.1,1.3-1.4c0.5-0.3,1.1-0.5,1.8-0.5c0.9,0,1.6,0.2,2.1,0.6
		c0.5,0.4,0.9,0.9,1.1,1.5s0.2,1.6,0.2,3.1v11.5h-5v-11.4c0-1.1,0-1.8-0.1-2.1s-0.3-0.4-0.6-0.4c-0.4,0-0.6,0.1-0.7,0.4
		c-0.1,0.3-0.1,1-0.1,2.3v11.1h-5v-16.4H108.8z"/>
	<path class="st5" d="M128,157.9h-4.7v-1.9c0-0.7-0.1-1.1-0.2-1.3c-0.1-0.2-0.3-0.4-0.6-0.4c-0.3,0-0.5,0.1-0.6,0.3
		c-0.1,0.2-0.1,0.7-0.1,1.4v7.7c0,0.6,0.1,1,0.2,1.3s0.4,0.4,0.7,0.4c0.3,0,0.6-0.2,0.7-0.5c0.1-0.3,0.2-0.9,0.2-1.7v-2h4.5
		c0,1.3-0.1,2.3-0.1,3c-0.1,0.7-0.4,1.3-0.8,2s-1.1,1.2-1.8,1.6c-0.8,0.3-1.7,0.5-2.8,0.5c-1.4,0-2.5-0.2-3.4-0.7
		c-0.8-0.5-1.4-1.2-1.8-2c-0.3-0.9-0.5-2.1-0.5-3.7v-4.7c0-1.4,0.1-2.4,0.4-3.2c0.3-0.7,0.9-1.3,1.8-1.9c0.9-0.6,2-0.8,3.3-0.8
		c1.3,0,2.4,0.3,3.3,0.8c0.9,0.6,1.5,1.2,1.8,2.1C127.9,155.2,128,156.4,128,157.9z"/>
	<path class="st5" d="M134.7,148.1v2.6h-5.1v-2.6H134.7z M134.7,151.7v16.4h-5.1v-16.4H134.7z"/>
	<path class="st5" d="M147.8,157.5v4c0,1.5-0.1,2.6-0.2,3.2s-0.5,1.3-1,1.9c-0.5,0.6-1.1,1-1.9,1.3s-1.6,0.4-2.6,0.4
		c-1.1,0-2-0.1-2.8-0.4s-1.4-0.6-1.8-1.1c-0.4-0.5-0.7-1.1-0.9-1.8c-0.2-0.7-0.3-1.7-0.3-3.1v-4.2c0-1.5,0.2-2.7,0.5-3.6
		c0.3-0.9,0.9-1.5,1.8-2.1c0.9-0.5,2-0.8,3.3-0.8c1.1,0,2.1,0.2,2.9,0.5c0.8,0.3,1.4,0.8,1.9,1.3c0.4,0.5,0.7,1.1,0.9,1.7
		C147.7,155.5,147.8,156.3,147.8,157.5z M142.8,156.3c0-0.8,0-1.4-0.1-1.6c-0.1-0.2-0.3-0.3-0.6-0.3s-0.5,0.1-0.6,0.3
		c-0.1,0.2-0.1,0.7-0.1,1.6v7.4c0,0.8,0,1.3,0.1,1.5c0.1,0.2,0.3,0.4,0.6,0.4c0.3,0,0.5-0.1,0.6-0.3c0.1-0.2,0.1-0.7,0.1-1.4V156.3z
		"/>
	<path class="st5" d="M154.5,151.7l-0.1,1.5c0.4-0.6,0.8-1.1,1.3-1.4c0.5-0.3,1.1-0.5,1.8-0.5c0.9,0,1.6,0.2,2.1,0.6
		c0.5,0.4,0.9,0.9,1.1,1.5c0.2,0.6,0.2,1.6,0.2,3.1v11.5h-5v-11.4c0-1.1,0-1.8-0.1-2.1s-0.3-0.4-0.6-0.4c-0.4,0-0.6,0.1-0.7,0.4
		s-0.1,1-0.1,2.3v11.1h-5v-16.4H154.5z"/>
	<path class="st5" d="M174,160.2h-6.5v3.5c0,0.7,0.1,1.2,0.2,1.4c0.1,0.2,0.3,0.3,0.6,0.3c0.4,0,0.6-0.1,0.8-0.4
		c0.1-0.3,0.2-0.8,0.2-1.7v-2.2h4.7v1.2c0,1-0.1,1.8-0.2,2.3c-0.1,0.5-0.4,1.1-0.9,1.7c-0.5,0.6-1.1,1.1-1.8,1.4
		c-0.7,0.3-1.6,0.5-2.7,0.5c-1.1,0-2-0.2-2.8-0.5c-0.8-0.3-1.4-0.7-1.9-1.3c-0.4-0.5-0.8-1.1-0.9-1.8c-0.2-0.6-0.3-1.6-0.3-2.8v-4.8
		c0-1.4,0.2-2.6,0.6-3.4c0.4-0.8,1-1.5,1.9-1.9c0.9-0.4,1.9-0.7,3-0.7c1.4,0,2.6,0.3,3.5,0.8c0.9,0.5,1.6,1.2,1.9,2.1
		c0.4,0.9,0.5,2.1,0.5,3.7V160.2z M169,157.6v-1.2c0-0.8,0-1.4-0.1-1.6s-0.3-0.4-0.6-0.4c-0.3,0-0.6,0.1-0.6,0.3
		c-0.1,0.2-0.1,0.8-0.1,1.7v1.2H169z"/>
	<path class="st5" d="M185.8,157h-4.4v-0.9c0-0.8,0-1.2-0.1-1.4c-0.1-0.2-0.3-0.3-0.6-0.3c-0.3,0-0.5,0.1-0.6,0.3
		c-0.1,0.2-0.2,0.5-0.2,0.8c0,0.5,0,0.9,0.1,1.1c0.1,0.2,0.3,0.5,0.6,0.8c0.3,0.3,1.1,0.7,2.2,1.2c1.5,0.7,2.4,1.4,2.9,2
		c0.5,0.6,0.7,1.5,0.7,2.7c0,1.3-0.2,2.3-0.5,3c-0.3,0.7-0.9,1.2-1.7,1.6c-0.8,0.4-1.8,0.6-2.9,0.6c-1.3,0-2.4-0.2-3.3-0.6
		c-0.9-0.4-1.5-0.9-1.9-1.6c-0.3-0.7-0.5-1.7-0.5-3.1v-0.8h4.4v1c0,0.9,0.1,1.5,0.2,1.7c0.1,0.3,0.3,0.4,0.7,0.4
		c0.4,0,0.6-0.1,0.7-0.3c0.1-0.2,0.2-0.5,0.2-1.1c0-0.8-0.1-1.3-0.3-1.5c-0.2-0.2-1.2-0.8-2.9-1.8c-1.5-0.8-2.4-1.6-2.7-2.2
		c-0.3-0.7-0.5-1.5-0.5-2.4c0-1.3,0.2-2.3,0.5-2.9c0.3-0.6,0.9-1.1,1.8-1.4c0.8-0.3,1.8-0.5,2.9-0.5c1.1,0,2,0.1,2.8,0.4
		s1.3,0.6,1.8,1.1c0.4,0.5,0.7,0.9,0.7,1.3c0.1,0.4,0.1,1,0.1,1.8V157z"/>
</g>
<path class="st5" d="M95.9,89.4c-0.5,0-0.9,0.3-1.1,0.7l-2.6,6.6c-0.7,0.4-0.7,0.7-0.7,0.7c-0.5,0.9-0.7,1.9-0.7,2.9
	c0,1.8,0.7,2.2,0.7,2.2c-0.4,0.6-0.3,1.4,0.3,1.8c0,0,0,0,0,0v2.6c0,0.4,0.3,0.7,0.7,0.7c0,0,0,0,0,0h2.9c0.4,0,0.7-0.3,0.7-0.7
	c0,0,0,0,0,0v-2.9h14.7v2.9c0,0.4,0.3,0.7,0.7,0.7c0,0,0,0,0,0h2.9c0.4,0,0.7-0.3,0.7-0.7c0,0,0,0,0,0v-2.6c0.6-0.4,0.8-1.2,0.4-1.8
	c0,0,0,0,0-0.1c0,0,0.7-0.4,0.7-2.2c0-1-0.3-2-0.7-2.9c0,0,0-0.4-0.7-0.7l-2.6-6.6c-0.2-0.4-0.6-0.7-1.1-0.7H95.9"/>
<path class="st1" d="M96.7,91.3c-0.7,0-0.7,0.4-0.7,0.4L94.1,96c-0.4,1.1,0.7,0.7,0.7,0.7c2.6-0.7,8.8-0.7,8.8-0.7s6.2,0,8.8,0.7
	c0,0,1.1,0.4,0.7-0.7l-1.8-4.4c0,0,0-0.4-0.7-0.4H96.7"/>
<path class="st5" d="M104.8,94.9c-0.7,0-1.2,0.4-1.6,1l-3.6,9.3c-1,0.5-1,1-1,1c-0.6,1.3-1,2.7-1,4.1c0,2.6,1,3.1,1,3.1
	c-0.6,0.8-0.4,2,0.5,2.6c0,0,0,0,0,0v3.6c0,0.6,0.4,1,1,1h4.1c0.6,0,1-0.4,1-1v-4.1h20.6v4.1c0,0.6,0.4,1,1,1h4.1c0.6,0,1-0.4,1-1
	v-3.5c0.9-0.5,1.1-1.7,0.6-2.5c0,0,0,0,0-0.1c0,0,1-0.5,1-3.1c0-1.4-0.4-2.8-1-4.1c0,0,0-0.5-1-1L128,96c-0.3-0.6-0.9-1-1.5-1h-21.6
	"/>
<polyline class="st6" points="120.9,108.9 110.6,108.9 110.6,111.5 120.9,111.5 120.9,108.9 "/>
<path class="st1" d="M105.8,97.5c-1,0-1,0.5-1,0.5l-2.6,6.2c-0.5,1.6,1,1,1,1c3.6-1,12.4-1,12.4-1s8.8,0,12.4,1c0,0,1.5,0.5,1-1
	l-2.6-6.2c0,0,0-0.5-1-0.5H105.8"/>
<path class="st5" d="M117.8,103.6c-0.9,0.1-1.7,0.6-2.1,1.4l-4.9,12.7c-1.4,0.7-1.4,1.4-1.4,1.4c-0.9,1.8-1.3,3.7-1.4,5.7
	c0,3.5,1.4,4.2,1.4,4.2c-0.8,1.1-0.5,2.7,0.6,3.5c0,0,0.1,0,0.1,0.1v4.9c0,0.8,0.6,1.4,1.4,1.4c0,0,0,0,0,0h5.7
	c0.8,0,1.4-0.6,1.4-1.4c0,0,0,0,0,0v-5.7h28.3v5.7c0,0.8,0.6,1.4,1.4,1.4c0,0,0,0,0,0h5.7c0.8,0,1.4-0.6,1.4-1.4v0v-4.9
	c1.2-0.8,1.5-2.3,0.8-3.5c0,0,0,0,0-0.1c0,0,1.4-0.7,1.4-4.2c-0.1-2-0.6-3.9-1.4-5.7c0,0,0-0.7-1.4-1.4l-5-12.7
	c-0.4-0.8-1.2-1.3-2.1-1.4L117.8,103.6"/>
<polyline class="st1" points="139.8,122.7 125.7,122.7 125.7,126.3 139.8,126.3 139.8,122.7 "/>
<path class="st1" d="M119.2,107.1c-1.4,0-1.4,0.7-1.4,0.7l-3.5,8.5c-0.7,2.1,1.4,1.4,1.4,1.4c5-1.4,17-1.4,17-1.4s12,0,17,1.4
	c0,0,2.1,0.7,1.4-1.4l-3.5-8.5c0,0,0-0.7-1.4-0.7H119.2"/>
</svg>
