<?xml version="1.0" encoding="utf-8"?>
<!-- Generator: Adobe Illustrator 24.1.1, SVG Export Plug-In . SVG Version: 6.00 Build 0)  -->
<svg version="1.1" id="Capa_1" xmlns="http://www.w3.org/2000/svg" xmlns:xlink="http://www.w3.org/1999/xlink" x="0px" y="0px"
	 viewBox="0 0 230 196.3" style="enable-background:new 0 0 230 196.3;" xml:space="preserve">
<style type="text/css">
	.st0{fill:none;stroke:#99531A;stroke-width:20;stroke-miterlimit:10;}
	.st1{fill:#F3F3F3;}
	.st2{fill:#EAEAEA;}
	.st3{fill:none;stroke:#D1731E;stroke-width:18;stroke-miterlimit:10;}
	.st4{enable-background:new    ;}
	.st5{fill:#303030;}
	.st6{fill:#282828;}
</style>
<path id="sombra" class="st0" d="M102.6,14.5L11.2,172.7c-2.5,4.3-1,9.9,3.3,12.4c1.4,0.8,2.9,1.2,4.5,1.2h182.7c5,0,9.1-4,9.1-9
	c0-1.6-0.4-3.2-1.2-4.5L118.2,14.5c-2.4-4.3-7.9-5.9-12.3-3.4C104.6,11.9,103.4,13.1,102.6,14.5z"/>
<path id="white" class="st1" d="M113.4,13.9l-93,161c-2.1,3.7-0.9,8.3,2.8,10.5c1.2,0.7,2.5,1,3.9,1h186c4.2,0,7.7-3.4,7.7-7.7
	c0-1.3-0.4-2.7-1-3.8l-93-161c-2.1-3.7-6.8-4.9-10.5-2.8C115,11.8,114,12.8,113.4,13.9z"/>
<rect x="-19.5" y="96.7" transform="matrix(0.5 -0.866 0.866 0.5 -50.4087 114.8694)" class="st2" width="187.6" height="8.8"/>
<path id="borde" class="st3" d="M113.7,14.1l-93,161c-2.1,3.7-0.9,8.4,2.8,10.5c1.2,0.7,2.5,1,3.8,1h186c4.2,0,7.7-3.4,7.7-7.7
	c0-1.3-0.4-2.7-1-3.8l-93-161c-2.1-3.7-6.8-4.9-10.5-2.8C115.4,12,114.4,13,113.7,14.1z"/>
<g class="st4">
	<path class="st5" d="M75.4,148.1l-2.6,20h-7.9l-3-20h5.5c0.6,5.5,1.1,10.2,1.4,14c0.3-3.9,0.6-7.3,0.9-10.3l0.4-3.7H75.4z"/>
	<path class="st5" d="M81.2,151.7v16.4h-5.1v-16.4H81.2z M82.9,147.3l-4.1,3.4h-2.5l2.2-3.4H82.9z"/>
	<path class="st5" d="M87.5,158.1h-4.7V157c0-1.3,0.1-2.2,0.4-2.9c0.3-0.7,0.9-1.3,1.8-1.8c0.9-0.5,2-0.8,3.4-0.8
		c1.7,0,3,0.3,3.8,0.9s1.4,1.3,1.5,2.2c0.2,0.9,0.3,2.7,0.3,5.4v8.2h-4.9v-1.5c-0.3,0.6-0.7,1-1.2,1.3c-0.5,0.3-1.1,0.4-1.7,0.4
		c-0.9,0-1.7-0.2-2.4-0.7c-0.7-0.5-1.1-1.6-1.1-3.2v-1.3c0-1.2,0.2-2.1,0.6-2.5s1.3-1,2.9-1.6c1.6-0.6,2.5-1.1,2.6-1.3
		c0.1-0.2,0.2-0.7,0.2-1.4c0-0.9-0.1-1.4-0.2-1.7c-0.1-0.3-0.3-0.4-0.6-0.4c-0.3,0-0.5,0.1-0.6,0.3c-0.1,0.2-0.1,0.8-0.1,1.7V158.1z
		 M89.1,160.4c-0.8,0.6-1.3,1.1-1.4,1.5c-0.1,0.4-0.2,1-0.2,1.7c0,0.8,0.1,1.4,0.2,1.6c0.1,0.2,0.3,0.4,0.7,0.4
		c0.3,0,0.5-0.1,0.6-0.3c0.1-0.2,0.1-0.7,0.1-1.5V160.4z"/>
	<path class="st5" d="M112.6,156.9h-5.2v-3.5c0-1-0.1-1.6-0.2-1.9c-0.1-0.3-0.4-0.4-0.7-0.4c-0.4,0-0.7,0.2-0.8,0.5
		c-0.1,0.3-0.2,1-0.2,2v9.3c0,1,0.1,1.6,0.2,1.9c0.1,0.3,0.4,0.4,0.8,0.4c0.4,0,0.6-0.1,0.8-0.4c0.1-0.3,0.2-1,0.2-2.1v-2.5h5.2v0.8
		c0,2.1-0.1,3.5-0.4,4.4c-0.3,0.9-0.9,1.6-1.9,2.3s-2.2,1-3.7,1c-1.5,0-2.8-0.3-3.8-0.8c-1-0.6-1.6-1.3-2-2.3
		c-0.3-1-0.5-2.4-0.5-4.4v-5.9c0-1.4,0-2.5,0.1-3.2c0.1-0.7,0.4-1.4,0.9-2.1c0.5-0.7,1.2-1.2,2-1.6c0.9-0.4,1.9-0.6,3-0.6
		c1.5,0,2.8,0.3,3.8,0.9c1,0.6,1.7,1.3,2,2.2c0.3,0.9,0.5,2.3,0.5,4.1V156.9z"/>
	<path class="st5" d="M125.6,157.5v4c0,1.5-0.1,2.6-0.2,3.2s-0.5,1.3-1,1.9c-0.5,0.6-1.1,1-1.9,1.3s-1.6,0.4-2.6,0.4
		c-1.1,0-2-0.1-2.8-0.4s-1.4-0.6-1.8-1.1c-0.4-0.5-0.7-1.1-0.9-1.8c-0.2-0.7-0.3-1.7-0.3-3.1v-4.2c0-1.5,0.2-2.7,0.5-3.6
		c0.3-0.9,0.9-1.5,1.8-2.1c0.9-0.5,2-0.8,3.3-0.8c1.1,0,2.1,0.2,2.9,0.5c0.8,0.3,1.4,0.8,1.9,1.3c0.4,0.5,0.7,1.1,0.9,1.7
		C125.5,155.5,125.6,156.3,125.6,157.5z M120.6,156.3c0-0.8,0-1.4-0.1-1.6c-0.1-0.2-0.3-0.3-0.6-0.3s-0.5,0.1-0.6,0.3
		c-0.1,0.2-0.1,0.7-0.1,1.6v7.4c0,0.8,0,1.3,0.1,1.5c0.1,0.2,0.3,0.4,0.6,0.4c0.3,0,0.5-0.1,0.6-0.3c0.1-0.2,0.1-0.7,0.1-1.4V156.3z
		"/>
</g>
<g class="st4">
	<path class="st5" d="M132.2,151.7l-0.2,2.2c0.7-1.5,1.8-2.4,3.2-2.5v5.8c-0.9,0-1.6,0.1-2,0.4s-0.7,0.6-0.8,1
		c-0.1,0.4-0.1,1.5-0.1,3v6.5h-5v-16.4H132.2z"/>
</g>
<g class="st4">
	<path class="st5" d="M142,149.6v2.6h1.3v2.6H142v8.8c0,1.1,0.1,1.7,0.2,1.8c0.1,0.1,0.6,0.2,1.4,0.2v2.6h-2c-1.1,0-2,0-2.4-0.1
		c-0.5-0.1-0.9-0.3-1.3-0.7c-0.4-0.3-0.6-0.7-0.7-1.2s-0.1-1.5-0.1-3.1v-8.3H136v-2.6h1.1v-2.6H142z"/>
	<path class="st5" d="M149,158.1h-4.7V157c0-1.3,0.1-2.2,0.4-2.9c0.3-0.7,0.9-1.3,1.8-1.8c0.9-0.5,2-0.8,3.4-0.8
		c1.7,0,3,0.3,3.8,0.9s1.4,1.3,1.5,2.2s0.3,2.7,0.3,5.4v8.2h-4.9v-1.5c-0.3,0.6-0.7,1-1.2,1.3c-0.5,0.3-1.1,0.4-1.7,0.4
		c-0.9,0-1.7-0.2-2.4-0.7c-0.7-0.5-1.1-1.6-1.1-3.2v-1.3c0-1.2,0.2-2.1,0.6-2.5s1.3-1,2.9-1.6c1.6-0.6,2.5-1.1,2.6-1.3
		s0.2-0.7,0.2-1.4c0-0.9-0.1-1.4-0.2-1.7s-0.3-0.4-0.6-0.4c-0.3,0-0.5,0.1-0.6,0.3c-0.1,0.2-0.1,0.8-0.1,1.7V158.1z M150.5,160.4
		c-0.8,0.6-1.3,1.1-1.4,1.5c-0.1,0.4-0.2,1-0.2,1.7c0,0.8,0.1,1.4,0.2,1.6c0.1,0.2,0.3,0.4,0.7,0.4c0.3,0,0.5-0.1,0.6-0.3
		c0.1-0.2,0.1-0.7,0.1-1.5V160.4z"/>
	<path class="st5" d="M168.6,148.1v20h-5V167c-0.5,0.5-1,0.9-1.5,1.1c-0.5,0.2-1.1,0.4-1.7,0.4c-0.8,0-1.4-0.2-2-0.6
		s-0.9-0.9-1.1-1.4s-0.2-1.4-0.2-2.6v-7.7c0-1.3,0.1-2.2,0.2-2.7c0.2-0.5,0.5-1,1.1-1.4c0.6-0.4,1.3-0.6,2.1-0.6
		c0.6,0,1.2,0.1,1.7,0.3c0.5,0.2,1,0.6,1.4,1v-4.7H168.6z M163.6,155.9c0-0.6-0.1-1-0.2-1.2c-0.1-0.2-0.3-0.3-0.6-0.3
		c-0.3,0-0.5,0.1-0.6,0.3s-0.2,0.6-0.2,1.2v8c0,0.7,0,1.1,0.1,1.3c0.1,0.2,0.3,0.3,0.6,0.3c0.3,0,0.5-0.1,0.6-0.4
		c0.1-0.2,0.2-0.8,0.2-1.7V155.9z"/>
	<path class="st5" d="M174.9,158.1h-4.7V157c0-1.3,0.1-2.2,0.4-2.9c0.3-0.7,0.9-1.3,1.8-1.8c0.9-0.5,2-0.8,3.4-0.8
		c1.7,0,3,0.3,3.8,0.9s1.4,1.3,1.5,2.2s0.3,2.7,0.3,5.4v8.2h-4.9v-1.5c-0.3,0.6-0.7,1-1.2,1.3c-0.5,0.3-1.1,0.4-1.7,0.4
		c-0.9,0-1.7-0.2-2.4-0.7c-0.7-0.5-1.1-1.6-1.1-3.2v-1.3c0-1.2,0.2-2.1,0.6-2.5s1.3-1,2.9-1.6c1.6-0.6,2.5-1.1,2.6-1.3
		s0.2-0.7,0.2-1.4c0-0.9-0.1-1.4-0.2-1.7s-0.3-0.4-0.6-0.4c-0.3,0-0.5,0.1-0.6,0.3c-0.1,0.2-0.1,0.8-0.1,1.7V158.1z M176.5,160.4
		c-0.8,0.6-1.3,1.1-1.4,1.5c-0.1,0.4-0.2,1-0.2,1.7c0,0.8,0.1,1.4,0.2,1.6c0.1,0.2,0.3,0.4,0.7,0.4c0.3,0,0.5-0.1,0.6-0.3
		c0.1-0.2,0.1-0.7,0.1-1.5V160.4z"/>
</g>
<path class="st6" d="M152.9,93.7v47.9h-6.8v-36.6l-7,7h-5.9l12.9-12.9v-5.5L152.9,93.7z M127.9,97.7h-5.5L108,112.1h6l14.2-14.3
	L127.9,97.7z M115.3,97.7h-5.4l-14.4,14.4h5.9l14.2-14.3L115.3,97.7z M102.9,97.9l-0.2-0.2h-5.5l-3.8,3.8v-7.8h-6.8v47.9h6.8v-34.2
	L102.9,97.9z M140.5,97.7H135l-14.4,14.4h5.9l14.3-14.3L140.5,97.7z"/>
</svg>
