<svg id="Capa_1" data-name="Capa 1" xmlns="http://www.w3.org/2000/svg" viewBox="0 0 327.12 272.63"><defs><style>.cls-1{fill:#1570ba;}.cls-2{fill:#fff;}.cls-3{fill:#aaa;}.cls-4{fill:#666;}</style></defs><path class="cls-1" d="M251.53,114h69.2c2.72,0,5.43-.06,8.15.21,10.27,1,18.38,5.62,24.17,14.2a43.6,43.6,0,0,1,4.46,8.4q13.51,34.17,27,68.34a2.63,2.63,0,0,0,1.88,1.73,42.82,42.82,0,0,1,18.77,11,33.62,33.62,0,0,1,9.36,17.7,24.83,24.83,0,0,1,.43,4.39v91.21a5,5,0,0,0,0,.55c.06.52-.13.78-.69.73-.32,0-.64,0-1,0H389.67c-.33,0-.65,0-1,0s-.69.15-.68.63,0,.74,0,1.1q0,15.38,0,30.73c0,9-4.74,16.29-13.18,19.57-9.07,3.52-17.85,2.75-25.93-2.84a21,21,0,0,1-9-15.43c-.61-5-.34-10.14-.5-15.21-.18-5.71-.22-11.43-.33-17.15,0-1.12,0-1.12-1.14-1.13H165.56c-2,0-1.79-.39-1.84,1.85q-.24,13.29-.46,26.57a33.88,33.88,0,0,1-.87,8.09A21.62,21.62,0,0,1,149.91,384a26.94,26.94,0,0,1-22,.39,20.2,20.2,0,0,1-13-19.45q0-15.44,0-30.87c0-1.93.24-1.66-1.7-1.66H88.46c-.42,0-.57-.21-.56-.61s0-.73,0-1.1q0-44.56,0-89.13a32.75,32.75,0,0,1,8.61-22.43,41.71,41.71,0,0,1,17.89-11.63,14.07,14.07,0,0,1,2.23-.71,2.09,2.09,0,0,0,1.68-1.57q11.73-29.68,23.49-59.34c1.29-3.25,2.53-6.53,3.89-9.76a37.75,37.75,0,0,1,11.18-15.38,31.27,31.27,0,0,1,14.72-6.26,55.29,55.29,0,0,1,8.82-.55q22.14,0,44.29,0ZM357,205.22c-.13-.45-.2-.72-.29-1q-9.87-26.83-19.76-53.66a23.6,23.6,0,0,0-3.82-6.7,11.82,11.82,0,0,0-6.79-4.23,22.17,22.17,0,0,0-4-.54c-3.36-.14-6.73,0-10.1,0q-24.42-.12-48.85-.2-36.06-.12-72.11-.21a107.39,107.39,0,0,0-11.06.12c-6.28.62-10.7,3.67-13,9.57-.51,1.28-.92,2.6-1.4,3.89q-9.59,25.62-19.16,51.24c-.17.45-.52.88-.32,1.44Zm-217,73.6a23,23,0,1,0-22.87-22.93A23,23,0,0,0,140,278.82Zm224.21,0a23,23,0,1,0-22.83-23.12A22.94,22.94,0,0,0,364.2,278.82Z" transform="translate(-87.88 -113.93)"/><path class="cls-2" d="M140,278.82a23,23,0,1,1,22.81-23.14A23,23,0,0,1,140,278.82Z" transform="translate(-87.88 -113.93)"/><path class="cls-2" d="M364.2,278.82A23,23,0,1,1,387,255.87,23,23,0,0,1,364.2,278.82Z" transform="translate(-87.88 -113.93)"/><path class="cls-3" d="M348.46,202.51h-1.75l-80.08-.08c-1.6,0-1.5.19-1.4-1.36a9.7,9.7,0,0,1,1-3.51,22.5,22.5,0,0,1,16-12.85,20.66,20.66,0,0,1,3.84-.38q20.53-.68,41.07,0a22.14,22.14,0,0,1,13.63,5.12A20.87,20.87,0,0,1,348.46,202,4.3,4.3,0,0,1,348.46,202.51Z" transform="translate(-87.88 -113.93)"/><path class="cls-4" d="M322.92,160.76c0,.37,0,.74,0,1.11.25,4.45-1.8,7.87-4.88,10.8a14.73,14.73,0,0,1-6.5,3.73c-7.11,1.78-13.84-.4-18-6.51A13.15,13.15,0,0,1,291,161.4a18.44,18.44,0,0,0,0-2.23,11.35,11.35,0,0,1,1.51-6c3.14-5.64,7.91-8.69,14.38-8.72s11.23,3,14.45,8.58A14.09,14.09,0,0,1,322.92,160.76Z" transform="translate(-87.88 -113.93)"/></svg>