<svg id="Capa_1" data-name="Capa 1" xmlns="http://www.w3.org/2000/svg" viewBox="0 0 333 214.01"><defs><style>.cls-1{fill:#fdfefe;}.cls-2{fill:#0760a8;}.cls-3{fill:#f5cb06;}.cls-4{fill:#022e58;}</style></defs><path class="cls-1" d="M197.31,231.89a68.81,68.81,0,0,0-13.38-2,134.52,134.52,0,0,0-25.28,1.33c-2.6.4-3.67-.94-2.84-3.5a123.72,123.72,0,0,1,4.65-13A105,105,0,0,1,173.26,193a7.63,7.63,0,0,1,6-3.09,58.85,58.85,0,0,1,9.08.67c7,.71,13.78,2.56,20.64,4a2.57,2.57,0,0,0,2.36-.35c-2.52-1.49-4.86-2.92-7.24-4.27-7-3.95-14-7.93-21.51-10.77-1.81-.68-2-2.38-.6-4.19a63.35,63.35,0,0,1,11-10.75,114.1,114.1,0,0,1,17.14-10.54c1.66-.87,3.21-.11,4.76.31,8.14,2.25,15,6.88,21.41,12.09,4.18,3.38,8.23,6.92,12.39,10.33.61.51,1.28,1.48,2.11,1.17,1-.38,1-1.55,1.19-2.59a100,100,0,0,1,4.82-19.72c1.13-3,3.73-4.08,6.21-5.29a45.79,45.79,0,0,1,10.27-3.11,182.61,182.61,0,0,1,31-4.54c4.42-.21,4.47-.09,3,4.09-3.23,9.28-7.42,18.18-10.93,27.34a2.19,2.19,0,0,1-.49.8c-5.41,5.29-5.11,12.48-6.4,19.14-.31,1.61.59,1.42,1.61,1.18,6.23-1.43,12.45-2.88,18.69-4.25a78.07,78.07,0,0,1,13.45-1.8,12.81,12.81,0,0,1,8.86,3c5.65,4.56,10,10.26,13.69,16.43,3,4.94,6,9.86,9,14.79,1.63,2.67.74,4.36-2.38,4.43-10.49.24-21,.7-31.4,1.76-3.13.31-6.14,1-9.43.11-3.06-.79-5.7,1.69-8.46,2.9-.51.23-.18.7.05,1a3.68,3.68,0,0,0,1.89,1.29A240.46,240.46,0,0,1,329.38,243c23.15,9.25,44.73,21.05,62.51,38.89,9.74,9.76,17.87,20.76,22.66,33.77,3.49,9.5,4.71,19.42,1.88,29.44-1.67,5.93-5.89,9.26-11.62,10.67-6.55,1.6-12.7-.37-18.71-2.74-10.76-4.25-20-11.06-29.52-17.45-14.07-9.45-28.78-17.76-44.61-23.93a171.28,171.28,0,0,0-32-8.81,189.83,189.83,0,0,0-41.35-3A182.16,182.16,0,0,0,208,303.62c-12.66,2.72-24.5,7.58-36.32,12.73-11.16,4.87-21.32,11.34-31.59,17.69-8.57,5.31-17.28,10.34-27.08,13.06-4.58,1.26-9.21,2.73-14.06,1.63-5.53-1.25-9.91-4.27-12.36-9.45-1.15-2.45-1.3-5.29-1.48-8-.79-11.86,2.42-22.68,8.59-32.71,8-13.06,19.22-23.08,31.3-32.24,13.84-10.5,29.24-18.13,45.2-24.75C179.05,237.9,188.12,234.91,197.31,231.89ZM212,211.68a1.78,1.78,0,0,1-.16.67,48.07,48.07,0,0,0-6.37,13c-1.07,3.16-1.07,3.16,2,4.85,1.09.6,2.16,1.25,3.23,1.9.5.3,1.42.41,1.23,1.18a1.85,1.85,0,0,1-1.62,1.17q-2.76.53-5.5,1.14a244.3,244.3,0,0,0-41,12.95c-18.37,7.76-35.22,17.88-49.33,32.07-9.12,9.17-18.08,18.56-22,31.44-2.09,6.77-4.07,13.57-2.67,20.68,1.08,5.56,3.45,10.53,9.73,11.92a21.43,21.43,0,0,0,11.34-1c7.94-2.62,15.32-6.57,22.56-10.76,11.8-6.85,23.27-14.22,35.74-19.95,12.87-5.91,25.91-11,39.84-13.91a179,179,0,0,1,34.44-3.73,192,192,0,0,1,40.77,3.86,175.59,175.59,0,0,1,36.54,11.38,266.18,266.18,0,0,1,45.46,25.93c9.91,7,20.23,13.25,32.54,15.27,5.43.89,11.61-2.31,13.27-7.56,3.5-11,1.46-21.84-3.43-31.63-9.4-18.84-24-33.32-41.31-45.14-22.45-15.33-47.47-24.74-73.6-31.52-1.06-.27-2.05-.71-2.34-1.71-.34-1.15.87-1.5,1.59-2,3.57-2.59,7.74-4,11.73-5.76,1.35-.59,1.74-1.3,1.32-2.69a44.64,44.64,0,0,0-2.86-6.63c-.84-1.72-2-3.36-2-5.45a4.05,4.05,0,0,1,2.17,1.42q5.94,5.78,11.82,11.6a2.68,2.68,0,0,0,2.39,1.08q14.81-1.56,29.64-2.9c1.49-.14,1.71-.52,1.07-1.82-5-10.23-11.53-19.28-20.41-26.54a3.54,3.54,0,0,0-2.52-.89,102.87,102.87,0,0,0-22,2.93c-9.42,2.25-18.55,5.44-27.74,8.45-1.5.49-3,1.42-5,1.17C274.47,202.39,279,200,283,197a3.29,3.29,0,0,0,1.49-1.72,81.89,81.89,0,0,0,2.2-13.38c.1-1.19-.35-1.48-1.51-1.2-2.65.63-5.33,1.15-8,1.71L270,183.88c2.78-3,5.95-4.23,8.82-5.77,3.5-1.87,7.27-3.22,10.94-4.77a4.35,4.35,0,0,0,2.57-2.46c3.1-7.41,6.31-14.77,9.51-22.14.73-1.68.09-2.18-1.51-2-2.1.25-4.19.58-6.28.8-10.6,1.09-21,2.85-30.92,7.07-.76.33-1.4.63-1.68,1.47-1.39,4.13-2.74,8.27-3.79,12.51A144.07,144.07,0,0,0,254.74,185a2.16,2.16,0,0,1-1.09,1.94c-.69.24-1.18-.56-1.67-1-1.27-1.26-2.52-2.54-3.83-3.76-9.67-9-19.82-17.37-31.83-23.23-2.86-1.4-5-1.18-7.7.34-7.55,4.23-14.59,9-20.24,15.7-1,1.13-1.16,1.65.52,2.41a140.25,140.25,0,0,1,19.49,10.15,5.51,5.51,0,0,0,5.57.4,42.76,42.76,0,0,0,5.58-3.39c1.67-1,3.33-2.18,5.79-1.63-1.66,2-3.12,3.83-4.63,5.61-3.62,4.27-3.58,4.21.81,7.66,2.94,2.32,6.13,4.34,8.53,7.28.25.3.92.5.52,1.09s-.85.25-1.4.09c-15.22-4.37-30.44-8.71-46.32-10.21a6.84,6.84,0,0,0-6.61,2.55c-6.89,7.85-11.08,17.05-14.15,26.9-.59,1.9-.5,2.48,1.66,2.25a118.32,118.32,0,0,1,30.89.41,2.52,2.52,0,0,0,2.43-1c4-4.15,7.59-8.74,12-12.55C209.85,212.25,210.56,211.1,212,211.68Z" transform="translate(-85 -142.29)"/><path class="cls-2" d="M212,211.68c-1.47-.58-2.18.57-3,1.29-4.37,3.81-7.93,8.4-12,12.55a2.52,2.52,0,0,1-2.43,1,118.32,118.32,0,0,0-30.89-.41c-2.16.23-2.25-.35-1.66-2.25,3.07-9.85,7.26-19,14.15-26.9a6.84,6.84,0,0,1,6.61-2.55c15.88,1.5,31.1,5.84,46.32,10.21.55.16,1,.53,1.4-.09s-.27-.79-.52-1.09c-2.4-2.94-5.59-5-8.53-7.28-4.39-3.45-4.43-3.39-.81-7.66,1.51-1.78,3-3.59,4.63-5.61-2.46-.55-4.12.59-5.79,1.63a42.76,42.76,0,0,1-5.58,3.39,5.51,5.51,0,0,1-5.57-.4,140.25,140.25,0,0,0-19.49-10.15c-1.68-.76-1.48-1.28-.52-2.41,5.65-6.66,12.69-11.47,20.24-15.7,2.71-1.52,4.84-1.74,7.7-.34,12,5.86,22.16,14.2,31.83,23.23,1.31,1.22,2.56,2.5,3.83,3.76.49.48,1,1.28,1.67,1a2.16,2.16,0,0,0,1.09-1.94,144.07,144.07,0,0,1,2.92-16.36c1-4.24,2.4-8.38,3.79-12.51.28-.84.92-1.14,1.68-1.47,9.88-4.22,20.32-6,30.92-7.07,2.09-.22,4.18-.55,6.28-.8,1.6-.19,2.24.31,1.51,2-3.2,7.37-6.41,14.73-9.51,22.14a4.35,4.35,0,0,1-2.57,2.46c-3.67,1.55-7.44,2.9-10.94,4.77-2.87,1.54-6,2.77-8.82,5.77l7.21-1.47c2.67-.56,5.35-1.08,8-1.71,1.16-.28,1.61,0,1.51,1.2a81.89,81.89,0,0,1-2.2,13.38A3.29,3.29,0,0,1,283,197c-4,3-8.56,5.39-12.48,9.16,2.05.25,3.54-.68,5-1.17,9.19-3,18.32-6.2,27.74-8.45a102.87,102.87,0,0,1,22-2.93,3.54,3.54,0,0,1,2.52.89c8.88,7.26,15.4,16.31,20.41,26.54.64,1.3.42,1.68-1.07,1.82q-14.84,1.35-29.64,2.9a2.68,2.68,0,0,1-2.39-1.08q-5.9-5.82-11.82-11.6a4.05,4.05,0,0,0-2.17-1.42c0,2.09,1.12,3.73,2,5.45a44.64,44.64,0,0,1,2.86,6.63c.42,1.39,0,2.1-1.32,2.69-4,1.75-8.16,3.17-11.73,5.76-.72.52-1.93.87-1.59,2,.29,1,1.28,1.44,2.34,1.71,26.13,6.78,51.15,16.19,73.6,31.52,17.3,11.82,31.91,26.3,41.31,45.14,4.89,9.79,6.93,20.62,3.43,31.63-1.66,5.25-7.84,8.45-13.27,7.56-12.31-2-22.63-8.27-32.54-15.27a266.18,266.18,0,0,0-45.46-25.93,175.59,175.59,0,0,0-36.54-11.38,192,192,0,0,0-40.77-3.86A179,179,0,0,0,209,299.06c-13.93,2.89-27,8-39.84,13.91-12.47,5.73-23.94,13.1-35.74,19.95-7.24,4.19-14.62,8.14-22.56,10.76a21.43,21.43,0,0,1-11.34,1c-6.28-1.39-8.65-6.36-9.73-11.92-1.4-7.11.58-13.91,2.67-20.68,4-12.88,12.93-22.27,22-31.44,14.11-14.19,31-24.31,49.33-32.07a244.3,244.3,0,0,1,41-12.95q2.75-.62,5.5-1.14a1.85,1.85,0,0,0,1.62-1.17c.19-.77-.73-.88-1.23-1.18-1.07-.65-2.14-1.3-3.23-1.9-3.08-1.69-3.08-1.69-2-4.85a48.07,48.07,0,0,1,6.37-13A1.78,1.78,0,0,0,212,211.68Zm33.38,24A210.5,210.5,0,0,0,205.78,240a186.07,186.07,0,0,0-30.48,8.89,212.81,212.81,0,0,0-39,20.47c-11.84,7.79-22.66,16.81-30.86,28.54-7,10-11.76,20.91-11.36,33.49.17,5.29,3,8.15,8.28,8.52s9.79-1.35,14.1-3.64c7.15-3.8,14-8.12,21-12.21,18-10.54,36.43-19.94,56.5-26a185.52,185.52,0,0,1,44.89-7.82,180.09,180.09,0,0,1,40.85,3.13,219.94,219.94,0,0,1,57.91,19.38,241.6,241.6,0,0,1,29.18,17c7.15,4.95,14,10.35,22,14,4.28,1.94,8.52,3.6,13.26,2.65,2.55-.52,5-1.55,5.76-4.45a38.8,38.8,0,0,0-.95-21.75c-3.18-9.71-8.78-18-15.71-25.45a175.16,175.16,0,0,0-34.22-28,194.15,194.15,0,0,0-43.39-20.49A198.6,198.6,0,0,0,278.28,238,236.68,236.68,0,0,0,245.41,235.68Z" transform="translate(-85 -142.29)"/><path class="cls-3" d="M245.41,235.68A236.68,236.68,0,0,1,278.28,238a198.6,198.6,0,0,1,35.27,8.25,194.15,194.15,0,0,1,43.39,20.49,175.16,175.16,0,0,1,34.22,28c6.93,7.41,12.53,15.74,15.71,25.45a38.8,38.8,0,0,1,.95,21.75c-.72,2.9-3.21,3.93-5.76,4.45-4.74.95-9-.71-13.26-2.65-8-3.63-14.89-9-22-14a241.6,241.6,0,0,0-29.18-17,219.94,219.94,0,0,0-57.91-19.38,180.09,180.09,0,0,0-40.85-3.13,185.52,185.52,0,0,0-44.89,7.82c-20.07,6.07-38.53,15.47-56.5,26-7,4.09-13.85,8.41-21,12.21-4.31,2.29-9,4-14.1,3.64s-8.11-3.23-8.28-8.52c-.4-12.58,4.34-23.45,11.36-33.49,8.2-11.73,19-20.75,30.86-28.54a212.81,212.81,0,0,1,39-20.47A186.07,186.07,0,0,1,205.78,240,210.5,210.5,0,0,1,245.41,235.68Z" transform="translate(-85 -142.29)"/><path class="cls-4" d="M356.8,301.33c-1.59.15-2.75.81-2.83,2.5a1.06,1.06,0,0,0,1.41,1.11c1.54-.37,2.06-1.78,2.56-3C358.22,301.26,357.24,301.43,356.8,301.33Z" transform="translate(-85 -142.29)"/><path class="cls-4" d="M327.28,285.59c-1.25.34-2.56.8-2.86,2.43-.16.82.21,1.49,1,1.47,1.89-.06,2.1-1.73,2.62-3C328.29,285.93,328,285.55,327.28,285.59Z" transform="translate(-85 -142.29)"/><path class="cls-3" d="M184.57,283.87c.18-1.05.26-2.49,1.46-2.55s1.05,1.43,1.19,2.36-.12,2-1.28,2S184.72,284.74,184.57,283.87Z" transform="translate(-85 -142.29)"/><path class="cls-3" d="M356.8,301.33c.44.1,1.42-.07,1.14.62-.5,1.21-1,2.62-2.56,3a1.06,1.06,0,0,1-1.41-1.11C354.05,302.14,355.21,301.48,356.8,301.33Z" transform="translate(-85 -142.29)"/><path class="cls-3" d="M327.28,285.59c.76,0,1,.34.8.86-.52,1.31-.73,3-2.62,3-.83,0-1.2-.65-1-1.47C324.72,286.39,326,285.93,327.28,285.59Z" transform="translate(-85 -142.29)"/><path class="cls-3" d="M137.41,295c0,1.05-.91,1.81-2,2.31s-1.36-.7-1.92-1.24a4.52,4.52,0,0,1-.59-.72c-.58-.93-2.13-1.67-.44-3,1.49-1.19,2.72-1.3,4,.3A3.61,3.61,0,0,1,137.41,295Z" transform="translate(-85 -142.29)"/><path class="cls-3" d="M241.65,270.46c0,1.31,0,2.32,0,3.33a1.94,1.94,0,0,1-1.53,2c-1,.31-1.66-.34-2.18-1-1.36-1.74-1.58-6.93-.44-8.79a2.22,2.22,0,0,1,2.4-1c1,.14,1.41.82,1.46,1.8C241.44,268.12,241.56,269.43,241.65,270.46Z" transform="translate(-85 -142.29)"/><path class="cls-3" d="M162.25,290.57A4,4,0,0,1,164,293a1.68,1.68,0,0,1-.85,2.33c-1.15.28-1.69-.8-1.83-1.86A3.63,3.63,0,0,1,162.25,290.57Z" transform="translate(-85 -142.29)"/></svg>