<svg id="Capa_1" data-name="Capa 1" xmlns="http://www.w3.org/2000/svg" xmlns:xlink="http://www.w3.org/1999/xlink" viewBox="0 0 230.01 329.1"><defs><style>.cls-1,.cls-5,.cls-8{fill:none;}.cls-2{fill:#333;}.cls-3{clip-path:url(#clip-path);}.cls-4{fill:#383838;}.cls-5{stroke:#125689;stroke-width:20px;}.cls-5,.cls-8{stroke-miterlimit:10;}.cls-6{fill:#f4f4f4;}.cls-7{fill:#eaeaea;}.cls-8{stroke:#0760a8;stroke-width:18px;}.cls-9{fill:#e8e8e8;}.cls-10{fill:#ddd;}.cls-11{fill:#0760a8;}</style><clipPath id="clip-path" transform="translate(-131.25 -83.9)"><rect class="cls-1" x="238.47" y="263.61" width="27.14" height="149.39" rx="2.93"/></clipPath></defs><rect class="cls-2" x="99.98" y="183.32" width="34.38" height="145.77" rx="8.5"/><g class="cls-3"><rect class="cls-4" x="68.44" y="182.72" width="65.92" height="146.37" rx="8.5"/></g><path id="sombra" class="cls-5" d="M233.82,98.43l-91.34,158.2a9.05,9.05,0,0,0,7.83,13.58H333a9.06,9.06,0,0,0,7.84-13.58L249.49,98.43A9,9,0,0,0,233.82,98.43Z" transform="translate(-131.25 -83.9)"/><path id="white" class="cls-6" d="M244.63,97.82l-93,161a7.66,7.66,0,0,0,6.63,11.5h186a7.67,7.67,0,0,0,6.64-11.5l-93-161A7.67,7.67,0,0,0,244.63,97.82Z" transform="translate(-131.25 -83.9)"/><rect class="cls-7" x="201.15" y="91.17" width="8.75" height="187.64" transform="translate(-11.22 -161.88) rotate(30)"/><path id="borde" class="cls-8" d="M245,98l-93,161a7.67,7.67,0,0,0,6.64,11.5h186a7.67,7.67,0,0,0,6.64-11.5l-93-161A7.67,7.67,0,0,0,245,98Z" transform="translate(-131.25 -83.9)"/><path class="cls-9" d="M224,186.54l3,20h-5.32l-.28-3.6h-1.86l-.32,3.6h-5.38l2.66-20Zm-2.76,12.88q-.39-3.4-.79-8.42c-.53,3.84-.86,6.64-1,8.42Z" transform="translate(-131.25 -83.9)"/><path class="cls-9" d="M232.83,186.54v20h-5.14v-20Z" transform="translate(-131.25 -83.9)"/><path class="cls-9" d="M246,198.65h-6.47v3.55a3.84,3.84,0,0,0,.16,1.43.61.61,0,0,0,.62.33.76.76,0,0,0,.76-.43,4.92,4.92,0,0,0,.19-1.65v-2.17H246v1.21a10.58,10.58,0,0,1-.2,2.34,4.61,4.61,0,0,1-.89,1.75,4.37,4.37,0,0,1-1.79,1.39,6.93,6.93,0,0,1-2.72.46,8,8,0,0,1-2.79-.45,4.55,4.55,0,0,1-1.89-1.26,4.47,4.47,0,0,1-.93-1.76,11.51,11.51,0,0,1-.26-2.79v-4.78a8.13,8.13,0,0,1,.58-3.4,4,4,0,0,1,1.91-1.9,6.58,6.58,0,0,1,3-.67,6.83,6.83,0,0,1,3.47.8,4.41,4.41,0,0,1,1.92,2.12,10,10,0,0,1,.55,3.7Zm-5-2.67v-1.2a6.08,6.08,0,0,0-.14-1.65.54.54,0,0,0-.56-.37c-.34,0-.56.11-.64.32a6.72,6.72,0,0,0-.12,1.7V196Z" transform="translate(-131.25 -83.9)"/><path class="cls-9" d="M252.58,190.15l-.2,2.16a3.71,3.71,0,0,1,3.15-2.46v5.78a4.15,4.15,0,0,0-2,.37,1.53,1.53,0,0,0-.79,1,18.43,18.43,0,0,0-.15,3.05v6.49h-5V190.15Z" transform="translate(-131.25 -83.9)"/><path class="cls-9" d="M262.37,188v2.59h1.35v2.59h-1.35v8.79a4.67,4.67,0,0,0,.17,1.8c.11.13.58.19,1.39.19v2.65h-2a13.73,13.73,0,0,1-2.44-.15,2.56,2.56,0,0,1-1.29-.65,2.18,2.18,0,0,1-.69-1.18,20.72,20.72,0,0,1-.14-3.11v-8.34h-1.07v-2.59h1.07V188Z" transform="translate(-131.25 -83.9)"/><path class="cls-9" d="M269.29,196.51H264.6v-1.1a7.84,7.84,0,0,1,.44-2.94,4,4,0,0,1,1.76-1.82,8.18,8.18,0,0,1,7.26.1,3.48,3.48,0,0,1,1.55,2.2,34.93,34.93,0,0,1,.26,5.38v8.24H271V205.1a3,3,0,0,1-2.91,1.76,4.21,4.21,0,0,1-2.4-.73c-.73-.49-1.1-1.57-1.1-3.23v-1.34a4,4,0,0,1,.58-2.52,8.29,8.29,0,0,1,2.88-1.55,8.45,8.45,0,0,0,2.64-1.3,3.62,3.62,0,0,0,.17-1.36,4.57,4.57,0,0,0-.19-1.68.66.66,0,0,0-.64-.39.6.6,0,0,0-.63.33,6.83,6.83,0,0,0-.12,1.7Zm1.58,2.25a3.78,3.78,0,0,0-1.39,1.47,5.83,5.83,0,0,0-.19,1.71,4.65,4.65,0,0,0,.17,1.64.65.65,0,0,0,.66.38.61.61,0,0,0,.61-.29,4.63,4.63,0,0,0,.14-1.53Z" transform="translate(-131.25 -83.9)"/><path class="cls-9" d="M287.79,195.4h-4.42v-.9a5.05,5.05,0,0,0-.13-1.44c-.09-.2-.31-.3-.65-.3a.73.73,0,0,0-.63.28,1.35,1.35,0,0,0-.21.83,4.24,4.24,0,0,0,.1,1.11,1.72,1.72,0,0,0,.63.77,13.92,13.92,0,0,0,2.16,1.23,8,8,0,0,1,2.86,2,4.67,4.67,0,0,1,.68,2.74,6.83,6.83,0,0,1-.52,3,3.45,3.45,0,0,1-1.74,1.57,7,7,0,0,1-2.94.55,8,8,0,0,1-3.26-.59,3.58,3.58,0,0,1-1.86-1.61,7.12,7.12,0,0,1-.51-3.07v-.79h4.43v1a5.47,5.47,0,0,0,.17,1.72.65.65,0,0,0,.66.4.88.88,0,0,0,.74-.27,2,2,0,0,0,.21-1.12,2.51,2.51,0,0,0-.27-1.47,22.5,22.5,0,0,0-2.9-1.76,6.42,6.42,0,0,1-2.69-2.24,5.55,5.55,0,0,1-.48-2.4,6.14,6.14,0,0,1,.52-2.9,3.36,3.36,0,0,1,1.76-1.44,7.57,7.57,0,0,1,2.89-.51,8.13,8.13,0,0,1,2.78.42,4.24,4.24,0,0,1,1.75,1.09,3.06,3.06,0,0,1,.75,1.26,10,10,0,0,1,.12,1.82Z" transform="translate(-131.25 -83.9)"/><path class="cls-10" d="M212.06,216.68V223H207.2v25.18H199V223h-4.84v-6.29Z" transform="translate(-131.25 -83.9)"/><path class="cls-10" d="M221.54,222.35l-.31,3.39c1.14-2.42,2.8-3.71,5-3.85V231a6.57,6.57,0,0,0-3.17.59,2.44,2.44,0,0,0-1.24,1.62,28.25,28.25,0,0,0-.24,4.79v10.19h-7.85v-25.8Z" transform="translate(-131.25 -83.9)"/><path class="cls-10" d="M235,232.34h-7.37v-1.73a12.18,12.18,0,0,1,.69-4.61,6.4,6.4,0,0,1,2.77-2.87,13,13,0,0,1,11.41.17,5.45,5.45,0,0,1,2.43,3.46,54.28,54.28,0,0,1,.41,8.44v13h-7.64v-2.3a4.8,4.8,0,0,1-4.57,2.76,6.65,6.65,0,0,1-3.78-1.15q-1.73-1.16-1.72-5.07v-2.11c0-1.94.3-3.25.91-3.95s2.12-1.52,4.53-2.45q3.87-1.51,4.14-2a5.4,5.4,0,0,0,.28-2.14,6.88,6.88,0,0,0-.31-2.63,1,1,0,0,0-1-.62c-.53,0-.86.18-1,.52a10.47,10.47,0,0,0-.19,2.67Zm8.26-17-6.4,5.27h-3.94l3.42-5.27Zm-5.77,20.53a5.76,5.76,0,0,0-2.19,2.32,9.18,9.18,0,0,0-.3,2.68,8,8,0,0,0,.26,2.58,1,1,0,0,0,1,.59,1,1,0,0,0,1-.46,7.24,7.24,0,0,0,.23-2.4Z" transform="translate(-131.25 -83.9)"/><path class="cls-10" d="M258,216.68v4a10.07,10.07,0,0,0-2.86.22c-.3.15-.44.58-.44,1.28V223H258v4.09h-1.86v21.09h-7.86V227.06h-1.61V223h1.61a20.32,20.32,0,0,1,.18-3.4,2.83,2.83,0,0,1,.86-1.52,4.41,4.41,0,0,1,1.94-1,15.23,15.23,0,0,1,3.87-.35Z" transform="translate(-131.25 -83.9)"/><path class="cls-10" d="M267.6,216.68v4.1h-8.09v-4.1Zm0,5.67v25.8h-8.09v-25.8Z" transform="translate(-131.25 -83.9)"/><path class="cls-10" d="M287.77,232.09h-7.4v-3a6.05,6.05,0,0,0-.25-2.11.94.94,0,0,0-.94-.56.91.91,0,0,0-.91.49,6.14,6.14,0,0,0-.23,2.18v12.17a4.82,4.82,0,0,0,.34,2.07,1.12,1.12,0,0,0,1,.69,1,1,0,0,0,1.07-.72,8.54,8.54,0,0,0,.29-2.72v-3.08h7a39.08,39.08,0,0,1-.22,4.64,7.37,7.37,0,0,1-1.3,3.17,7,7,0,0,1-2.87,2.45,12.48,12.48,0,0,1-9.64-.31,6.25,6.25,0,0,1-2.75-3.19,16.47,16.47,0,0,1-.81-5.82v-7.33a14.24,14.24,0,0,1,.66-5,6.41,6.41,0,0,1,2.82-3,9.88,9.88,0,0,1,5.25-1.31,10,10,0,0,1,5.25,1.3,6.35,6.35,0,0,1,2.89,3.28A17.21,17.21,0,0,1,287.77,232.09Z" transform="translate(-131.25 -83.9)"/><path class="cls-10" d="M307.87,231.41v6.32a26.06,26.06,0,0,1-.35,5.1,7.17,7.17,0,0,1-1.49,3,6.74,6.74,0,0,1-2.95,2.08,11.69,11.69,0,0,1-4.13.67,14.76,14.76,0,0,1-4.41-.57,6,6,0,0,1-2.81-1.73,6.83,6.83,0,0,1-1.43-2.8,21.3,21.3,0,0,1-.43-4.93V232a16.13,16.13,0,0,1,.78-5.62,6.47,6.47,0,0,1,2.8-3.25,9.82,9.82,0,0,1,5.17-1.22,11.91,11.91,0,0,1,4.54.78,7.42,7.42,0,0,1,2.93,2.05,7.52,7.52,0,0,1,1.41,2.61A16.35,16.35,0,0,1,307.87,231.41ZM300,229.47a8.73,8.73,0,0,0-.21-2.5.9.9,0,0,0-.92-.52.93.93,0,0,0-.93.52,7.79,7.79,0,0,0-.23,2.5v11.64a7.42,7.42,0,0,0,.23,2.38,1.06,1.06,0,0,0,1.84,0,6.6,6.6,0,0,0,.22-2.18Z" transform="translate(-131.25 -83.9)"/><path class="cls-11" d="M225.92,187l3,20h-5.32l-.28-3.6h-1.87l-.31,3.6h-5.38l2.65-20Zm-2.76,12.88c-.26-2.27-.53-5.08-.79-8.42-.53,3.84-.87,6.64-1,8.42Z" transform="translate(-131.25 -83.9)"/><path class="cls-11" d="M234.78,187v20h-5.15V187Z" transform="translate(-131.25 -83.9)"/><path class="cls-11" d="M247.89,199.15h-6.47v3.55a4.08,4.08,0,0,0,.16,1.43.63.63,0,0,0,.62.33A.76.76,0,0,0,243,204a4.66,4.66,0,0,0,.19-1.65v-2.17h4.74v1.21a10.7,10.7,0,0,1-.19,2.34,4.79,4.79,0,0,1-.9,1.75A4.34,4.34,0,0,1,245,206.9a7,7,0,0,1-2.72.46,7.74,7.74,0,0,1-2.79-.46,4.3,4.3,0,0,1-2.82-3,11,11,0,0,1-.26-2.79v-4.78a8.13,8.13,0,0,1,.58-3.4,4,4,0,0,1,1.9-1.91,7.64,7.64,0,0,1,6.51.14,4.31,4.31,0,0,1,1.92,2.12,9.8,9.8,0,0,1,.55,3.7Zm-5-2.67v-1.2a6.22,6.22,0,0,0-.13-1.65.54.54,0,0,0-.56-.37c-.35,0-.56.11-.64.32a6.08,6.08,0,0,0-.13,1.7v1.2Z" transform="translate(-131.25 -83.9)"/><path class="cls-11" d="M254.52,190.65l-.19,2.16a3.7,3.7,0,0,1,3.15-2.46v5.78a4.17,4.17,0,0,0-2,.37,1.56,1.56,0,0,0-.79,1,18.43,18.43,0,0,0-.15,3.05v6.49h-5V190.65Z" transform="translate(-131.25 -83.9)"/><path class="cls-11" d="M264.32,188.46v2.59h1.35v2.59h-1.35v8.79a4.67,4.67,0,0,0,.17,1.8c.11.13.57.19,1.39.19v2.65h-2a13.53,13.53,0,0,1-2.43-.15,2.56,2.56,0,0,1-1.29-.65,2.18,2.18,0,0,1-.69-1.18,20.72,20.72,0,0,1-.14-3.11v-8.34h-1.08v-2.59h1.08v-2.59Z" transform="translate(-131.25 -83.9)"/><path class="cls-11" d="M271.24,197h-4.69v-1.1A7.64,7.64,0,0,1,267,193a4.08,4.08,0,0,1,1.76-1.83,8.23,8.23,0,0,1,7.26.11,3.52,3.52,0,0,1,1.55,2.2,34.93,34.93,0,0,1,.26,5.38v8.24H273V205.6a3.2,3.2,0,0,1-1.19,1.32,3.17,3.17,0,0,1-1.72.44,4.22,4.22,0,0,1-2.41-.73c-.73-.49-1.09-1.57-1.09-3.23v-1.34a4,4,0,0,1,.58-2.52A8.29,8.29,0,0,1,270,198a8.59,8.59,0,0,0,2.64-1.3,3.62,3.62,0,0,0,.17-1.36,4.8,4.8,0,0,0-.19-1.68.66.66,0,0,0-.64-.39q-.51,0-.63.33a6.83,6.83,0,0,0-.12,1.7Zm1.58,2.25a3.7,3.7,0,0,0-1.39,1.47,5.83,5.83,0,0,0-.19,1.71,5,5,0,0,0,.16,1.64.65.65,0,0,0,.66.38.62.62,0,0,0,.62-.3,4.81,4.81,0,0,0,.14-1.52Z" transform="translate(-131.25 -83.9)"/><path class="cls-11" d="M289.74,195.9h-4.43V195a4.69,4.69,0,0,0-.13-1.44c-.08-.2-.3-.3-.65-.3a.73.73,0,0,0-.63.28,1.35,1.35,0,0,0-.21.83,4.14,4.14,0,0,0,.11,1.11,1.72,1.72,0,0,0,.63.77,13.92,13.92,0,0,0,2.16,1.23,7.89,7.89,0,0,1,2.85,2,4.6,4.6,0,0,1,.69,2.74,7,7,0,0,1-.52,3,3.5,3.5,0,0,1-1.74,1.57,7.08,7.08,0,0,1-2.94.55,8.19,8.19,0,0,1-3.26-.59,3.58,3.58,0,0,1-1.86-1.61,7.12,7.12,0,0,1-.51-3.07v-.79h4.43v1a5.47,5.47,0,0,0,.17,1.72.65.65,0,0,0,.66.4.89.89,0,0,0,.74-.27,2,2,0,0,0,.21-1.12,2.51,2.51,0,0,0-.27-1.47,22.21,22.21,0,0,0-2.91-1.76,6.37,6.37,0,0,1-2.68-2.24,5.55,5.55,0,0,1-.48-2.4,6.29,6.29,0,0,1,.51-2.9,3.42,3.42,0,0,1,1.77-1.44,7.57,7.57,0,0,1,2.89-.51,8.07,8.07,0,0,1,2.77.42,4.21,4.21,0,0,1,1.76,1.09,2.92,2.92,0,0,1,.74,1.26,9,9,0,0,1,.13,1.82Z" transform="translate(-131.25 -83.9)"/><path class="cls-4" d="M213.56,216.55v6.3H208.7V248h-8.19V222.85h-4.84v-6.3Z" transform="translate(-131.25 -83.9)"/><path class="cls-4" d="M223,222.23l-.31,3.39q1.71-3.65,5-3.86v9.08a6.56,6.56,0,0,0-3.17.58,2.49,2.49,0,0,0-1.25,1.62,30,30,0,0,0-.23,4.8V248h-7.85V222.23Z" transform="translate(-131.25 -83.9)"/><path class="cls-4" d="M236.45,232.22h-7.36v-1.73a12.2,12.2,0,0,1,.69-4.62,6.4,6.4,0,0,1,2.77-2.87,10.4,10.4,0,0,1,5.4-1.24,10.52,10.52,0,0,1,6,1.41,5.47,5.47,0,0,1,2.43,3.46,54.37,54.37,0,0,1,.41,8.44v13h-7.64v-2.3a4.79,4.79,0,0,1-4.57,2.77,6.61,6.61,0,0,1-3.78-1.16q-1.73-1.16-1.72-5.06v-2.12c0-1.93.3-3.25.91-4s2.12-1.51,4.53-2.45q3.87-1.51,4.14-2a5.46,5.46,0,0,0,.27-2.14,7.24,7.24,0,0,0-.3-2.63,1,1,0,0,0-1-.61q-.79,0-1,.51a10.44,10.44,0,0,0-.2,2.68Zm8.27-17-6.4,5.27h-3.94l3.42-5.27Zm-5.78,20.53a5.85,5.85,0,0,0-2.18,2.31,9.12,9.12,0,0,0-.31,2.68,7.62,7.62,0,0,0,.27,2.59,1,1,0,0,0,1,.58,1,1,0,0,0,1-.46,7.35,7.35,0,0,0,.22-2.4Z" transform="translate(-131.25 -83.9)"/><path class="cls-4" d="M259.51,216.55v4a9.6,9.6,0,0,0-2.87.23c-.29.15-.43.57-.43,1.27v.82h3.3v4.08h-1.87V248h-7.85V226.93h-1.61v-4.08h1.61a20.24,20.24,0,0,1,.18-3.4,2.89,2.89,0,0,1,.86-1.53,4.37,4.37,0,0,1,1.93-1,15.72,15.72,0,0,1,3.87-.35Z" transform="translate(-131.25 -83.9)"/><path class="cls-4" d="M269.09,216.55v4.1H261v-4.1Zm0,5.68V248H261V222.23Z" transform="translate(-131.25 -83.9)"/><path class="cls-4" d="M289.27,232h-7.41v-3a5.81,5.81,0,0,0-.25-2.11,1.09,1.09,0,0,0-1.85-.07,6.43,6.43,0,0,0-.23,2.18v12.17a4.79,4.79,0,0,0,.35,2.07,1.12,1.12,0,0,0,1,.69,1.07,1.07,0,0,0,1.08-.72,8.62,8.62,0,0,0,.28-2.72v-3.07h7a41.31,41.31,0,0,1-.22,4.63,7.5,7.5,0,0,1-1.3,3.17,7,7,0,0,1-2.87,2.45,12.36,12.36,0,0,1-9.64-.31,6.21,6.21,0,0,1-2.75-3.19,16.43,16.43,0,0,1-.81-5.82V231a14.14,14.14,0,0,1,.66-4.95,6.43,6.43,0,0,1,2.82-3,11.21,11.21,0,0,1,10.5,0,6.37,6.37,0,0,1,2.89,3.29A17.1,17.1,0,0,1,289.27,232Z" transform="translate(-131.25 -83.9)"/><path class="cls-4" d="M309.37,231.28v6.32a27.08,27.08,0,0,1-.35,5.11,7.08,7.08,0,0,1-1.5,3,6.73,6.73,0,0,1-2.94,2.08,12,12,0,0,1-4.13.67,14.42,14.42,0,0,1-4.41-.58,5.87,5.87,0,0,1-2.81-1.73,6.73,6.73,0,0,1-1.43-2.79,20.81,20.81,0,0,1-.43-4.93v-6.61a16.13,16.13,0,0,1,.78-5.62A6.47,6.47,0,0,1,295,223a9.89,9.89,0,0,1,5.17-1.22,11.74,11.74,0,0,1,4.54.79A7.13,7.13,0,0,1,309,227.2,16.36,16.36,0,0,1,309.37,231.28Zm-7.85-1.94a8.28,8.28,0,0,0-.22-2.5.87.87,0,0,0-.91-.51.91.91,0,0,0-.93.51,7.73,7.73,0,0,0-.24,2.5V241a7.4,7.4,0,0,0,.24,2.39.89.89,0,0,0,.91.55.9.9,0,0,0,.92-.51,6.44,6.44,0,0,0,.23-2.17Z" transform="translate(-131.25 -83.9)"/></svg>