<svg id="Capa_1" data-name="Capa 1" xmlns="http://www.w3.org/2000/svg" xmlns:xlink="http://www.w3.org/1999/xlink" viewBox="0 0 230.01 329.1"><defs><style>.cls-1,.cls-5,.cls-8{fill:none;}.cls-2{fill:#333;}.cls-3{clip-path:url(#clip-path);}.cls-4{fill:#383838;}.cls-5{stroke:#842331;stroke-width:20px;}.cls-5,.cls-8{stroke-miterlimit:10;}.cls-6{fill:#f4f4f4;}.cls-7{fill:#eaeaea;}.cls-8{stroke:#a02430;stroke-width:18px;}.cls-9{fill:#d8d8d8;}.cls-10{fill:#d6d6d6;}.cls-11{fill:#a02430;}</style><clipPath id="clip-path" transform="translate(-131.25 -83.9)"><rect class="cls-1" x="238.47" y="263.61" width="27.14" height="149.39" rx="2.93"/></clipPath></defs><rect class="cls-2" x="99.98" y="183.32" width="34.38" height="145.77" rx="8.5"/><g class="cls-3"><rect class="cls-4" x="68.44" y="182.72" width="65.92" height="146.37" rx="8.5"/></g><path id="sombra" class="cls-5" d="M233.82,98.43l-91.34,158.2a9.05,9.05,0,0,0,7.83,13.58H333a9.06,9.06,0,0,0,7.84-13.58L249.49,98.43A9,9,0,0,0,233.82,98.43Z" transform="translate(-131.25 -83.9)"/><path id="white" class="cls-6" d="M244.63,97.82l-93,161a7.66,7.66,0,0,0,6.63,11.5h186a7.67,7.67,0,0,0,6.64-11.5l-93-161A7.67,7.67,0,0,0,244.63,97.82Z" transform="translate(-131.25 -83.9)"/><rect class="cls-7" x="201.15" y="91.17" width="8.75" height="187.64" transform="translate(-11.22 -161.88) rotate(30)"/><path id="borde" class="cls-8" d="M245,98l-93,161a7.67,7.67,0,0,0,6.64,11.5h186a7.67,7.67,0,0,0,6.64-11.5l-93-161A7.67,7.67,0,0,0,245,98Z" transform="translate(-131.25 -83.9)"/><path class="cls-9" d="M223.83,187h8.69v4H229v3.79h3.25v3.81H229v4.41h3.82v4h-9Z" transform="translate(-131.25 -83.9)"/><path class="cls-9" d="M244.42,195.9H240V195a5.05,5.05,0,0,0-.13-1.44c-.09-.2-.31-.3-.65-.3a.73.73,0,0,0-.63.28,1.35,1.35,0,0,0-.21.83,4.24,4.24,0,0,0,.1,1.11,1.72,1.72,0,0,0,.63.77,13.92,13.92,0,0,0,2.16,1.23,8,8,0,0,1,2.86,2,4.67,4.67,0,0,1,.68,2.74,6.83,6.83,0,0,1-.52,3,3.5,3.5,0,0,1-1.74,1.57,7,7,0,0,1-2.94.55,8.22,8.22,0,0,1-3.26-.59,3.58,3.58,0,0,1-1.86-1.61,7.15,7.15,0,0,1-.5-3.07v-.79h4.42v1a5.47,5.47,0,0,0,.17,1.72.65.65,0,0,0,.66.4.91.91,0,0,0,.75-.27,2,2,0,0,0,.21-1.12,2.49,2.49,0,0,0-.28-1.47,22.5,22.5,0,0,0-2.9-1.76,6.42,6.42,0,0,1-2.69-2.24,5.55,5.55,0,0,1-.48-2.4,6.14,6.14,0,0,1,.52-2.9,3.4,3.4,0,0,1,1.76-1.44,7.57,7.57,0,0,1,2.89-.51,8.13,8.13,0,0,1,2.78.42,4.17,4.17,0,0,1,1.75,1.09,3.06,3.06,0,0,1,.75,1.26,9.77,9.77,0,0,1,.13,1.82Z" transform="translate(-131.25 -83.9)"/><path class="cls-9" d="M251.41,188.46v2.59h1.34v2.59h-1.34v8.79a4.78,4.78,0,0,0,.16,1.8c.11.13.58.19,1.39.19v2.65h-2a13.73,13.73,0,0,1-2.44-.15,2.6,2.6,0,0,1-1.29-.65,2.18,2.18,0,0,1-.69-1.18,21.28,21.28,0,0,1-.13-3.11v-8.34h-1.08v-2.59h1.08v-2.59Z" transform="translate(-131.25 -83.9)"/><path class="cls-9" d="M258.32,197h-4.69v-1.1a7.84,7.84,0,0,1,.44-2.94,4.08,4.08,0,0,1,1.76-1.83,8.25,8.25,0,0,1,7.27.11,3.5,3.5,0,0,1,1.54,2.2,33.64,33.64,0,0,1,.26,5.38v8.24H260V205.6a3,3,0,0,1-2.91,1.76,4.21,4.21,0,0,1-2.4-.73c-.73-.49-1.1-1.57-1.1-3.23v-1.34a4,4,0,0,1,.58-2.52A8.27,8.27,0,0,1,257.1,198a8.32,8.32,0,0,0,2.63-1.3,3.42,3.42,0,0,0,.17-1.36,4.57,4.57,0,0,0-.19-1.68.66.66,0,0,0-.63-.39c-.34,0-.55.11-.64.33a6.83,6.83,0,0,0-.12,1.7Zm5.26-10.81-4.07,3.35H257l2.17-3.35Zm-3.68,13.06a3.78,3.78,0,0,0-1.39,1.47,5.83,5.83,0,0,0-.19,1.71,4.91,4.91,0,0,0,.17,1.64.65.65,0,0,0,.66.38.6.6,0,0,0,.61-.3,4.52,4.52,0,0,0,.14-1.52Z" transform="translate(-131.25 -83.9)"/><path class="cls-9" d="M276.83,195.9H272.4V195a4.69,4.69,0,0,0-.13-1.44c-.09-.2-.3-.3-.65-.3a.73.73,0,0,0-.63.28,1.35,1.35,0,0,0-.21.83,4.24,4.24,0,0,0,.1,1.11,1.72,1.72,0,0,0,.63.77,13.92,13.92,0,0,0,2.16,1.23,8,8,0,0,1,2.86,2,4.67,4.67,0,0,1,.68,2.74,6.83,6.83,0,0,1-.52,3,3.5,3.5,0,0,1-1.74,1.57,7,7,0,0,1-2.94.55,8.25,8.25,0,0,1-3.26-.59,3.58,3.58,0,0,1-1.86-1.61,7.3,7.3,0,0,1-.5-3.07v-.79h4.43v1a5.58,5.58,0,0,0,.16,1.72.65.65,0,0,0,.66.4.9.9,0,0,0,.75-.27,2,2,0,0,0,.21-1.12,2.41,2.41,0,0,0-.28-1.47,21.7,21.7,0,0,0-2.9-1.76,6.42,6.42,0,0,1-2.69-2.24,5.55,5.55,0,0,1-.48-2.4,6.14,6.14,0,0,1,.52-2.9,3.4,3.4,0,0,1,1.76-1.44,7.57,7.57,0,0,1,2.89-.51,8.09,8.09,0,0,1,2.78.42,4.28,4.28,0,0,1,1.76,1.09,3.14,3.14,0,0,1,.74,1.26,9.77,9.77,0,0,1,.13,1.82Z" transform="translate(-131.25 -83.9)"/><path class="cls-10" d="M191,216.55h7.17a18.71,18.71,0,0,1,5.16.53,5.05,5.05,0,0,1,2.82,2.14,9.62,9.62,0,0,1,1.08,5.2,5.57,5.57,0,0,1-.76,3.38,5.3,5.3,0,0,1-3,1.47,5.34,5.34,0,0,1,3.38,1.87,7.18,7.18,0,0,1,.89,4v2.57a10.11,10.11,0,0,1-.64,4.15,3.45,3.45,0,0,1-2,1.85,20.9,20.9,0,0,1-5.74.5H191Zm7.19,4.73v6.15h.72c.7,0,1.15-.18,1.35-.52a8.7,8.7,0,0,0,.29-3,4.84,4.84,0,0,0-.24-1.82,1.17,1.17,0,0,0-.62-.65A5.14,5.14,0,0,0,198.19,221.28Zm0,10.46v7.74a3,3,0,0,0,1.94-.48,3.32,3.32,0,0,0,.42-2.1v-2.58a3.64,3.64,0,0,0-.38-2.15A3.33,3.33,0,0,0,198.19,231.74Z" transform="translate(-131.25 -83.9)"/><path class="cls-10" d="M216.29,230.32h-6.48V228.8a10.63,10.63,0,0,1,.61-4.06,5.6,5.6,0,0,1,2.43-2.52,11.41,11.41,0,0,1,10,.15,4.83,4.83,0,0,1,2.13,3,47.48,47.48,0,0,1,.36,7.42v11.39h-6.72v-2A4.44,4.44,0,0,1,217,244a4.53,4.53,0,0,1-2.38.61,5.84,5.84,0,0,1-3.33-1c-1-.68-1.51-2.16-1.51-4.45v-1.87a5.47,5.47,0,0,1,.8-3.46,11.31,11.31,0,0,1,4-2.16c2.26-.89,3.48-1.48,3.64-1.79a4.78,4.78,0,0,0,.24-1.88,6.24,6.24,0,0,0-.27-2.32.91.91,0,0,0-.88-.54c-.47,0-.76.15-.87.46a9.38,9.38,0,0,0-.17,2.35Zm2.19,3.11a5.13,5.13,0,0,0-1.93,2,8.27,8.27,0,0,0-.26,2.35,7,7,0,0,0,.23,2.28.9.9,0,0,0,.91.51c.44,0,.72-.13.85-.4a6.48,6.48,0,0,0,.2-2.11Z" transform="translate(-131.25 -83.9)"/><path class="cls-10" d="M234.78,221.54l-.12,2.09a5.11,5.11,0,0,1,1.84-1.88,5,5,0,0,1,2.5-.62,4.82,4.82,0,0,1,2.91.83,3.77,3.77,0,0,1,1.45,2.12,19,19,0,0,1,.32,4.24v15.9h-6.9V228.51a14.91,14.91,0,0,0-.15-2.85c-.11-.35-.39-.52-.86-.52a.85.85,0,0,0-.92.59,14.56,14.56,0,0,0-.19,3.16v15.33h-6.9V221.54Z" transform="translate(-131.25 -83.9)"/><path class="cls-10" d="M261.7,233.28h-8.94v4.9a5.47,5.47,0,0,0,.22,2,.87.87,0,0,0,.85.44,1.05,1.05,0,0,0,1.06-.59,6.62,6.62,0,0,0,.26-2.28v-3h6.55v1.67a14.72,14.72,0,0,1-.27,3.23,6.6,6.6,0,0,1-1.24,2.41,6,6,0,0,1-2.47,1.93,9.64,9.64,0,0,1-3.75.64,10.7,10.7,0,0,1-3.86-.64,6.19,6.19,0,0,1-2.61-1.73,6.29,6.29,0,0,1-1.29-2.43,15.55,15.55,0,0,1-.36-3.85v-6.62a11.2,11.2,0,0,1,.81-4.69,5.5,5.5,0,0,1,2.63-2.63,9.27,9.27,0,0,1,4.2-.91,9.47,9.47,0,0,1,4.8,1.1,6.11,6.11,0,0,1,2.65,2.92,13.88,13.88,0,0,1,.76,5.12Zm-6.93-3.69v-1.66a8.69,8.69,0,0,0-.18-2.27.74.74,0,0,0-.77-.52c-.48,0-.78.15-.89.44a8.79,8.79,0,0,0-.17,2.35v1.66Z" transform="translate(-131.25 -83.9)"/><path class="cls-10" d="M270.12,230.32h-6.48V228.8a10.83,10.83,0,0,1,.61-4.06,5.68,5.68,0,0,1,2.44-2.52,11.38,11.38,0,0,1,10,.15,4.79,4.79,0,0,1,2.13,3,47.48,47.48,0,0,1,.36,7.42v11.39H272.5v-2a4.51,4.51,0,0,1-1.63,1.83,4.59,4.59,0,0,1-2.39.61,5.81,5.81,0,0,1-3.32-1c-1-.68-1.52-2.16-1.52-4.45v-1.87a5.4,5.4,0,0,1,.81-3.46,11.14,11.14,0,0,1,4-2.16c2.27-.89,3.48-1.48,3.64-1.79a4.78,4.78,0,0,0,.24-1.88,6.24,6.24,0,0,0-.27-2.32.9.9,0,0,0-.88-.54c-.46,0-.75.15-.87.46a9.38,9.38,0,0,0-.17,2.35Zm2.19,3.11a5,5,0,0,0-1.92,2,7.86,7.86,0,0,0-.27,2.35,7,7,0,0,0,.23,2.28.91.91,0,0,0,.92.51.83.83,0,0,0,.84-.4,6.48,6.48,0,0,0,.2-2.11Z" transform="translate(-131.25 -83.9)"/><path class="cls-10" d="M297.29,216.55v27.67h-6.9v-1.65a7,7,0,0,1-2.09,1.54,5.33,5.33,0,0,1-2.29.52,4.68,4.68,0,0,1-2.78-.85,3.73,3.73,0,0,1-1.51-2,13.91,13.91,0,0,1-.34-3.62V227.59a14.29,14.29,0,0,1,.34-3.71,3.64,3.64,0,0,1,1.53-1.92,4.82,4.82,0,0,1,2.85-.83,5.62,5.62,0,0,1,4.29,1.85v-6.43Zm-6.9,10.7a4.4,4.4,0,0,0-.21-1.68.88.88,0,0,0-.85-.43.86.86,0,0,0-.83.39,4.34,4.34,0,0,0-.21,1.72v11.1a5.29,5.29,0,0,0,.2,1.82.79.79,0,0,0,.79.44.88.88,0,0,0,.89-.49,7.45,7.45,0,0,0,.22-2.38Z" transform="translate(-131.25 -83.9)"/><path class="cls-10" d="M315.39,229.5v5.56a22.91,22.91,0,0,1-.31,4.48,6.29,6.29,0,0,1-1.31,2.67,6.07,6.07,0,0,1-2.59,1.83,10.39,10.39,0,0,1-3.63.59,12.81,12.81,0,0,1-3.88-.51,5.24,5.24,0,0,1-2.47-1.52,6,6,0,0,1-1.26-2.46,18.6,18.6,0,0,1-.37-4.33V230a14.1,14.1,0,0,1,.68-4.94,5.72,5.72,0,0,1,2.46-2.86,8.76,8.76,0,0,1,4.55-1.07,10.4,10.4,0,0,1,4,.69,6.36,6.36,0,0,1,2.57,1.8,6.46,6.46,0,0,1,1.24,2.29A14.44,14.44,0,0,1,315.39,229.5Zm-6.9-1.71a7.66,7.66,0,0,0-.19-2.19.77.77,0,0,0-.8-.46.8.8,0,0,0-.82.46,6.73,6.73,0,0,0-.21,2.19V238a6.44,6.44,0,0,0,.21,2.09.77.77,0,0,0,.8.49.8.8,0,0,0,.81-.44,5.85,5.85,0,0,0,.2-1.92Z" transform="translate(-131.25 -83.9)"/><path class="cls-4" d="M224.48,188.88h8.68v4h-3.48v3.8h3.26v3.81h-3.26v4.4h3.83v4h-9Z" transform="translate(-131.25 -83.9)"/><path class="cls-4" d="M245.06,197.74h-4.43v-.89a4.6,4.6,0,0,0-.13-1.44c-.09-.2-.3-.3-.65-.3a.75.75,0,0,0-.63.27,1.41,1.41,0,0,0-.21.84,4.25,4.25,0,0,0,.11,1.11,1.77,1.77,0,0,0,.63.77,13.3,13.3,0,0,0,2.16,1.22,7.76,7.76,0,0,1,2.85,2,4.59,4.59,0,0,1,.68,2.73,6.85,6.85,0,0,1-.52,3,3.43,3.43,0,0,1-1.73,1.57,7.28,7.28,0,0,1-2.94.55,8,8,0,0,1-3.26-.6,3.49,3.49,0,0,1-1.86-1.6,7.12,7.12,0,0,1-.51-3.07v-.79h4.43v1a5.62,5.62,0,0,0,.16,1.72.67.67,0,0,0,.67.39.92.92,0,0,0,.74-.26,2,2,0,0,0,.21-1.12,2.53,2.53,0,0,0-.27-1.48,24.21,24.21,0,0,0-2.91-1.75,6.45,6.45,0,0,1-2.68-2.25,5.37,5.37,0,0,1-.49-2.39,6.27,6.27,0,0,1,.52-2.9,3.33,3.33,0,0,1,1.77-1.44,7.52,7.52,0,0,1,2.88-.51,8.36,8.36,0,0,1,2.78.41,4.29,4.29,0,0,1,1.76,1.1,2.91,2.91,0,0,1,.74,1.26,8.9,8.9,0,0,1,.13,1.82Z" transform="translate(-131.25 -83.9)"/><path class="cls-4" d="M252.05,190.31v2.58h1.35v2.6h-1.35v8.78a4.55,4.55,0,0,0,.17,1.81c.11.12.57.18,1.39.18v2.65h-2a15.08,15.08,0,0,1-2.44-.14,2.59,2.59,0,0,1-1.28-.66,2.16,2.16,0,0,1-.69-1.17,19.38,19.38,0,0,1-.14-3.11v-8.34H246v-2.6H247v-2.58Z" transform="translate(-131.25 -83.9)"/><path class="cls-4" d="M259,198.85h-4.68v-1.1a7.86,7.86,0,0,1,.43-2.94,4.14,4.14,0,0,1,1.77-1.82,8.23,8.23,0,0,1,7.26.11,3.49,3.49,0,0,1,1.55,2.2,35.32,35.32,0,0,1,.25,5.37v8.24h-4.86v-1.46a3.18,3.18,0,0,1-1.18,1.32,3.28,3.28,0,0,1-1.72.44,4.23,4.23,0,0,1-2.41-.74c-.73-.49-1.09-1.56-1.09-3.22V203.9a3.94,3.94,0,0,1,.58-2.51,8,8,0,0,1,2.88-1.56,8.09,8.09,0,0,0,2.63-1.3,3.3,3.3,0,0,0,.18-1.36,4.73,4.73,0,0,0-.19-1.67.66.66,0,0,0-.64-.39c-.34,0-.55.11-.63.32a6.23,6.23,0,0,0-.13,1.7ZM264.22,188l-4.07,3.35h-2.51l2.18-3.35Zm-3.67,13.07a3.58,3.58,0,0,0-1.39,1.47,5.66,5.66,0,0,0-.2,1.7,5,5,0,0,0,.17,1.65.64.64,0,0,0,.66.37.63.63,0,0,0,.62-.29,4.85,4.85,0,0,0,.14-1.53Z" transform="translate(-131.25 -83.9)"/><path class="cls-4" d="M277.47,197.74H273v-.89a4.6,4.6,0,0,0-.13-1.44c-.08-.2-.3-.3-.65-.3a.75.75,0,0,0-.63.27,1.41,1.41,0,0,0-.21.84,4.25,4.25,0,0,0,.11,1.11,1.77,1.77,0,0,0,.63.77,13.3,13.3,0,0,0,2.16,1.22,7.76,7.76,0,0,1,2.85,2,4.59,4.59,0,0,1,.68,2.73,6.85,6.85,0,0,1-.52,3,3.43,3.43,0,0,1-1.73,1.57,7.28,7.28,0,0,1-2.94.55,8,8,0,0,1-3.26-.6,3.57,3.57,0,0,1-1.86-1.6,7.12,7.12,0,0,1-.51-3.07v-.79h4.43v1a5.22,5.22,0,0,0,.17,1.72.64.64,0,0,0,.66.39A.92.92,0,0,0,273,206a2,2,0,0,0,.21-1.12,2.53,2.53,0,0,0-.27-1.48,24.21,24.21,0,0,0-2.91-1.75,6.45,6.45,0,0,1-2.68-2.25,5.37,5.37,0,0,1-.49-2.39,6.27,6.27,0,0,1,.52-2.9,3.33,3.33,0,0,1,1.77-1.44,7.52,7.52,0,0,1,2.88-.51,8.36,8.36,0,0,1,2.78.41,4.29,4.29,0,0,1,1.76,1.1,2.91,2.91,0,0,1,.74,1.26,8.9,8.9,0,0,1,.13,1.82Z" transform="translate(-131.25 -83.9)"/><path class="cls-11" d="M193.77,217.58h7.17a19.18,19.18,0,0,1,5.16.52,5.17,5.17,0,0,1,2.83,2.15,9.7,9.7,0,0,1,1.07,5.2,5.59,5.59,0,0,1-.76,3.38,5.3,5.3,0,0,1-3,1.47,5.32,5.32,0,0,1,3.39,1.87,7.25,7.25,0,0,1,.88,4v2.57a10.11,10.11,0,0,1-.64,4.15,3.42,3.42,0,0,1-2,1.85,21,21,0,0,1-5.74.49h-8.32Zm7.19,4.73v6.15l.72,0c.71,0,1.16-.17,1.35-.52a8.59,8.59,0,0,0,.29-3,4.84,4.84,0,0,0-.24-1.82,1.16,1.16,0,0,0-.62-.66A5.65,5.65,0,0,0,201,222.31Zm0,10.46v7.74a3,3,0,0,0,1.94-.48,3.32,3.32,0,0,0,.42-2.1v-2.58a3.61,3.61,0,0,0-.38-2.15A3.25,3.25,0,0,0,201,232.77Z" transform="translate(-131.25 -83.9)"/><path class="cls-11" d="M219.06,231.35h-6.48v-1.52a10.59,10.59,0,0,1,.61-4.06,5.65,5.65,0,0,1,2.43-2.52,9.19,9.19,0,0,1,4.76-1.09,9.32,9.32,0,0,1,5.28,1.23,4.84,4.84,0,0,1,2.13,3.05,47.4,47.4,0,0,1,.36,7.42v11.38h-6.71v-2a4.59,4.59,0,0,1-1.64,1.83,4.52,4.52,0,0,1-2.38.6,5.85,5.85,0,0,1-3.32-1c-1-.68-1.52-2.16-1.52-4.45v-1.87a5.45,5.45,0,0,1,.81-3.47,11.33,11.33,0,0,1,4-2.15c2.26-.89,3.48-1.49,3.64-1.79a4.78,4.78,0,0,0,.24-1.88,6.24,6.24,0,0,0-.27-2.32.9.9,0,0,0-.88-.54q-.71,0-.87.45a9.49,9.49,0,0,0-.17,2.35Zm2.19,3.11a5.19,5.19,0,0,0-1.93,2,8.4,8.4,0,0,0-.26,2.36,7,7,0,0,0,.23,2.28.9.9,0,0,0,.91.51.86.86,0,0,0,.85-.4,6.48,6.48,0,0,0,.2-2.11Z" transform="translate(-131.25 -83.9)"/><path class="cls-11" d="M237.55,222.57l-.12,2.08a5.16,5.16,0,0,1,1.84-1.87,4.88,4.88,0,0,1,2.5-.62,4.73,4.73,0,0,1,2.91.83,3.75,3.75,0,0,1,1.45,2.11,19.2,19.2,0,0,1,.32,4.25v15.89h-6.9v-15.7a15.12,15.12,0,0,0-.15-2.86c-.11-.34-.39-.51-.86-.51a.85.85,0,0,0-.92.59,14.44,14.44,0,0,0-.19,3.15v15.33h-6.9V222.57Z" transform="translate(-131.25 -83.9)"/><path class="cls-11" d="M264.47,234.31h-8.94v4.9a5.36,5.36,0,0,0,.22,2,.86.86,0,0,0,.86.45,1,1,0,0,0,1.05-.59,6.7,6.7,0,0,0,.26-2.28v-3h6.55v1.67a14.72,14.72,0,0,1-.27,3.23,6.45,6.45,0,0,1-1.24,2.41,6,6,0,0,1-2.47,1.92,9.46,9.46,0,0,1-3.75.64,10.92,10.92,0,0,1-3.86-.63,6.26,6.26,0,0,1-2.61-1.73,6.36,6.36,0,0,1-1.29-2.43,15.69,15.69,0,0,1-.35-3.85v-6.62a11.21,11.21,0,0,1,.8-4.69,5.5,5.5,0,0,1,2.63-2.63,9.27,9.27,0,0,1,4.2-.91,9.37,9.37,0,0,1,4.8,1.1,6.06,6.06,0,0,1,2.65,2.92,13.84,13.84,0,0,1,.76,5.12Zm-6.92-3.7V229a8.63,8.63,0,0,0-.19-2.28.75.75,0,0,0-.77-.51c-.48,0-.78.15-.89.44a9.26,9.26,0,0,0-.17,2.35v1.65Z" transform="translate(-131.25 -83.9)"/><path class="cls-11" d="M272.89,231.35h-6.47v-1.52a10.82,10.82,0,0,1,.6-4.06,5.68,5.68,0,0,1,2.44-2.52,9.15,9.15,0,0,1,4.75-1.09,9.32,9.32,0,0,1,5.28,1.23,4.86,4.86,0,0,1,2.14,3.05,49.19,49.19,0,0,1,.35,7.42v11.38h-6.71v-2a4.18,4.18,0,0,1-4,2.43,5.87,5.87,0,0,1-3.32-1c-1-.68-1.51-2.16-1.51-4.45v-1.87a5.46,5.46,0,0,1,.8-3.47,11.33,11.33,0,0,1,4-2.15c2.27-.89,3.48-1.49,3.64-1.79a4.78,4.78,0,0,0,.24-1.88,6.24,6.24,0,0,0-.27-2.32.9.9,0,0,0-.88-.54q-.69,0-.87.45a9.49,9.49,0,0,0-.17,2.35Zm2.19,3.11a5.07,5.07,0,0,0-1.92,2,8,8,0,0,0-.27,2.36,7,7,0,0,0,.23,2.28.91.91,0,0,0,.92.51.85.85,0,0,0,.84-.4,6.48,6.48,0,0,0,.2-2.11Z" transform="translate(-131.25 -83.9)"/><path class="cls-11" d="M300.07,217.58v27.66h-6.91V243.6a7.27,7.27,0,0,1-2.08,1.54,5.38,5.38,0,0,1-2.29.51,4.68,4.68,0,0,1-2.79-.84,3.76,3.76,0,0,1-1.51-2,14,14,0,0,1-.34-3.62V228.62a14.29,14.29,0,0,1,.34-3.71A3.7,3.7,0,0,1,286,223a4.88,4.88,0,0,1,2.85-.82,5.62,5.62,0,0,1,4.29,1.85v-6.43Zm-6.91,10.69a4.34,4.34,0,0,0-.21-1.67,1.07,1.07,0,0,0-1.68,0,4.28,4.28,0,0,0-.21,1.71v11.11a5.33,5.33,0,0,0,.2,1.82.79.79,0,0,0,.79.44.88.88,0,0,0,.89-.49,7.45,7.45,0,0,0,.22-2.38Z" transform="translate(-131.25 -83.9)"/><path class="cls-11" d="M318.16,230.53v5.55a24.06,24.06,0,0,1-.3,4.49,6.44,6.44,0,0,1-1.32,2.67,6,6,0,0,1-2.59,1.82,10.16,10.16,0,0,1-3.63.59,12.83,12.83,0,0,1-3.88-.5,5.32,5.32,0,0,1-2.47-1.52,6,6,0,0,1-1.26-2.46,18.6,18.6,0,0,1-.37-4.33V231a14.32,14.32,0,0,1,.68-4.93,5.72,5.72,0,0,1,2.46-2.86,8.66,8.66,0,0,1,4.55-1.07,10.4,10.4,0,0,1,4,.69,6.25,6.25,0,0,1,3.81,4.09A14.38,14.38,0,0,1,318.16,230.53Zm-6.9-1.71a7.42,7.42,0,0,0-.19-2.2.77.77,0,0,0-.8-.45.8.8,0,0,0-.82.45,6.85,6.85,0,0,0-.21,2.2v10.24a6.44,6.44,0,0,0,.21,2.09.77.77,0,0,0,.8.49.79.79,0,0,0,.81-.45,5.73,5.73,0,0,0,.2-1.91Z" transform="translate(-131.25 -83.9)"/></svg>