<svg id="Capa_1" data-name="Capa 1" xmlns="http://www.w3.org/2000/svg" viewBox="0 0 368.1 232.46"><defs><style>.cls-1{fill:#4f4f4f;}.cls-2{fill:#fdfdfd;}</style></defs><path class="cls-1" d="M287.88,210.22c15.18-1.05,29.37-6.45,43.46-11.29,10.86-3.73,11.12,3.23,12.89,9.3s6,12.78-5,15.32c-11.41,2.61-22.5,6.58-33.79,9.74-9.93,2.78-22.26,3-16.46,19.41,1.34,3.78-1.71,6.06-5.83,6-2.8,0-5.59,0-8.39,0-28.19.47-34.45,7.22-34,38.72-6.69-10.06-7.9-20.21-10.48-29.74-2.29-8.44-5.12-11.65-15-8.28-21.63,7.41-44.21,12.09-65.72,19.81-14.32,5.13-19.73,2.18-23.56-12.64-3.24-12.56-3.34-17.59,11.58-17.62,48.45-.11,91.43-23.32,139.8-32.84-10.53-4.15-10.56-4.26-18.23-2-18.76,5.45-38,9.75-56.12,16.79-39.14,15.17-80.38,11.62-120.76,15.83C70,248,70.77,238.84,68.64,231.9c-6.75-22-6.67-22.07,15-28.43,74.45-21.91,149-43.53,223.27-66,12.52-3.78,17.45-1.5,20.41,11.41,2.18,9.49,1.53,20.85,10.89,27.8l-.24-.28c1.87,12.68-5.29,16.8-16.32,20-11.66,3.39-25.57,2.38-34,13.93,0,0-.1.45-.1.45Z" transform="translate(-64.69 -135.84)"/><path class="cls-1" d="M388.36,227.54c22.63-4.43,22.69-4.43,22.61,20.88-.08,26.25-.3,52.5-.47,78.76-4.82,2.25-9.36,5.57-15.2,4.09a4.88,4.88,0,0,0-.49-1.2c-.14-.19-.56-.18-.85-.26l1.53,1.28c-.07,3.27-.31,6.43-4.17,7.63-40.15-25.71-43.95-73.21-8.41-104.38,2.24-2,6.4-2.59,5.68-7Z" transform="translate(-64.69 -135.84)"/><path class="cls-1" d="M300,303.34c-11.16,0-22.72-1.87-33.38.44-15.27,3.32-18.17-5.52-19.89-16.33-2-12.69,4.26-21.8,16.61-22.32,28.4-1.2,56.88-.5,85.33-.54,3.78,0,6.73,1.24,5.73,5.8A68.8,68.8,0,0,0,354,297c1.21,7.16-4.73,6.21-8.85,6.26-15.06.18-30.13.07-45.19.07Zm-44.29-17.28c.56,3.25.86,8.24,8.2,7.94,7-.29,12.42-3.11,12.59-10.22.16-6.32-4.39-9.35-11.12-9.6C257.82,273.89,255.62,277.72,255.71,286.06Z" transform="translate(-64.69 -135.84)"/><path class="cls-1" d="M417.11,317.09c-.08-35.14-.24-70.27-.13-105.41,0-5-1.91-11.53,7.34-11.84,10.4-.35,8.16,6.75,8.15,12.41,0,34-.2,68-.33,102.05Z" transform="translate(-64.69 -135.84)"/><path class="cls-1" d="M388.59,227.31c-9.79-3.92-10.37-11.58-7-19.73a103.49,103.49,0,0,1,10.57-18.76c6.09-8.84,7.69-17.9-.18-25.71-7.64-7.58-16.28-4.88-24.09,1.11-2.15,1.64-4.41,3.14-7.51,5.34-4.13-12.78,5.84-14.95,12.34-17.66,10.85-4.52,21.3-1.84,28.08,8,7.32,10.68,7.2,22.32-1.11,32.54-8.46,10.39-12.42,21.78-11.33,35Z" transform="translate(-64.69 -135.84)"/><path class="cls-1" d="M338.19,176.7c3.19-5-.12-9.55-1.41-14-1.37-4.79-2.23-8.08,4.05-10.09,5.79-1.85,8.11.11,9.56,5.21,2.57,9,5.18,18.06,7.95,27,1.55,5,.93,8-5,9.69-6.41,1.82-7.07-1.52-9-6.08-1.7-4.08.08-10.4-6.38-12C338,176.42,338.19,176.7,338.19,176.7Z" transform="translate(-64.69 -135.84)"/><path class="cls-1" d="M119.87,267c1.27,7.68-6.25,7.46-10.85,7.85-11.93,1-8-10.46-11.07-16.22-3.35-6.21,1.83-6.7,6.59-7.6C117.06,248.7,117,258.48,119.87,267Z" transform="translate(-64.69 -135.84)"/><path class="cls-1" d="M432.14,334.62c.13,7.71.19,15.43.41,23.14.17,5.83.32,10.83-8.23,10.53-7.47-.27-7.64-4.59-7.52-9.86q.17-6.6.34-13.21C424,344.27,424.08,333.82,432.14,334.62Z" transform="translate(-64.69 -135.84)"/><path class="cls-1" d="M432.14,334.62c-8.06-.8-8.18,9.65-15,10.6a68.36,68.36,0,0,1,0-28.13l15-2.79C428.78,321.07,434.69,327.85,432.14,334.62Z" transform="translate(-64.69 -135.84)"/><path class="cls-1" d="M395.3,331.27c5.84,1.48,10.38-1.84,15.2-4.09.83,5.75,4.67,13.11-1.4,16.6s-12.74,0-17.78-5.06c3.86-1.2,4.1-4.36,4.17-7.63Z" transform="translate(-64.69 -135.84)"/><path class="cls-2" d="M287.88,210.22l-.33.58s.11-.46.1-.45Z" transform="translate(-64.69 -135.84)"/><path class="cls-1" d="M395.49,331.09,394,329.81c.29.08.71.07.85.26a4.88,4.88,0,0,1,.49,1.2Z" transform="translate(-64.69 -135.84)"/><path class="cls-2" d="M255.71,286.06c-.09-8.34,2.11-12.17,9.67-11.88,6.73.25,11.28,3.28,11.12,9.6-.17,7.11-5.57,9.93-12.59,10.22C256.57,294.3,256.27,289.31,255.71,286.06Z" transform="translate(-64.69 -135.84)"/></svg>