<?xml version="1.0" encoding="utf-8"?>
<!-- Generator: Adobe Illustrator 24.1.1, SVG Export Plug-In . SVG Version: 6.00 Build 0)  -->
<svg version="1.1" id="Capa_1" xmlns="http://www.w3.org/2000/svg" xmlns:xlink="http://www.w3.org/1999/xlink" x="0px" y="0px"
	 viewBox="0 0 208.9 170.8" style="enable-background:new 0 0 208.9 170.8;" xml:space="preserve">
<style type="text/css">
	.st0{fill:#222222;}
	.st1{fill:#252525;}
</style>
<path class="st0" d="M104.6,52.4c-17.6,0-35.3-0.1-52.9,0.1c-4,0-4.3-1-3.1-4.4c4.9-14.2,9.6-28.4,14.1-42.6c1-3.1,2.4-3.7,5.5-3
	c7.3,1.7,14.6,3.1,22,4.6c4.7,1,9.3-0.6,13.8-1.2c12.5-1.7,25-3.6,37.5-5.6c3.2-0.5,4.8,0.3,5.7,3.5c4.3,14.4,8.8,28.6,13.1,43
	c1.7,5.7,1.6,5.8-4.3,5.8L104.6,52.4z"/>
<path class="st1" d="M177.9,138.3c-0.2,18-14.9,32.4-32.9,32.2c-17.3-0.2-31.5-13.9-32.2-31.2c-0.1-3.4-1.3-4.8-4.4-5
	c-1.5-0.1-3-0.3-4.5-0.2c-7.3,0-7.8,0.5-8.7,7.7c-1.8,16.3-15.4,28.6-31.7,28.9c-16.1,0.5-29.7-10.7-33-27c-3-15,6.1-30.7,20.9-36.2
	c15-5.6,31.8,0.7,39.6,14.7c1.7,2.9,3.2,3.5,6.3,2.7c4.4-1.2,9-1.2,13.3-0.1c3.4,0.8,4.9,0,6.6-3c9-15.5,28.9-20.8,44.4-11.8
	C171.8,115.7,178,126.6,177.9,138.3L177.9,138.3z M145.4,115c-12.7,0.1-23.1,10.4-23.3,23.1c0,12.5,10.6,23.1,23.3,23.1
	c12.8,0.3,23.3-9.9,23.6-22.6c0.3-12.8-9.9-23.3-22.6-23.6C146,115,145.7,115,145.4,115L145.4,115z M63,161.3
	c12.8-0.2,23-10.6,22.8-23.4c-0.2-12.8-10.6-23-23.4-22.8c-12.7,0.2-23,10.6-22.8,23.3C39.9,151.1,50.3,161.3,63,161.3L63,161.3z"/>
<path class="st0" d="M3.7,91.9c18.4-9.1,38-14,58.1-17.2c40.8-6.7,82.6-3.7,122,8.6c8.6,2.6,16.9,5.9,25,9.7c-0.8,1.6-1.9,1-2.7,1
	c-66.1,0-132.3,0-198.4,0c-1,0-2-0.1-3-0.1C4.4,93.3,4.1,92.6,3.7,91.9z"/>
<path class="st1" d="M3.7,91.9c0.3,0.7,0.7,1.4,1,2c-1.6,0.4-3.2,0.3-4.7-0.2C0.8,92.5,2.2,91.8,3.7,91.9z"/>
</svg>
